<svg width="45" height="47" viewBox="0 0 45 47" fill="none" xmlns="http://www.w3.org/2000/svg">
<circle cx="22.5" cy="22.5" r="22.5" fill="currentColor"/>
<g clip-path="url(#clip0_49_4329)">
<path d="M27.8412 12.1195C27.357 13.7838 25.8205 15 24 15H22C20.1795 15 18.643 13.7838 18.1588 12.1195C16.9114 12.4832 16 13.6352 16 15V18C16 18.5523 15.5523 19 15 19C14.4477 19 14 18.5523 14 18V15C14 12.2386 16.2386 10 19 10H27C29.7614 10 32 12.2386 32 15V18C32 18.5523 31.5523 19 31 19C30.4477 19 30 18.5523 30 18V15C30 13.6352 29.0886 12.4832 27.8412 12.1195ZM25.7324 12H20.2676C20.6134 12.5978 21.2597 13 22 13H24C24.7403 13 25.3866 12.5978 25.7324 12ZM30 28C30 27.4477 30.4477 27 31 27C31.5523 27 32 27.4477 32 28V31C32 33.7614 29.7614 36 27 36H19C16.2386 36 14 33.7614 14 31V28C14 27.4477 14.4477 27 15 27C15.5523 27 16 27.4477 16 28V31C16 32.6569 17.3431 34 19 34H27C28.6569 34 30 32.6569 30 31V28ZM30.2929 24.2929L31.5858 23L30.2929 21.7071C29.9024 21.3166 29.9024 20.6834 30.2929 20.2929C30.6834 19.9024 31.3166 19.9024 31.7071 20.2929L33.7071 22.2929C34.0976 22.6834 34.0976 23.3166 33.7071 23.7071L31.7071 25.7071C31.3166 26.0976 30.6834 26.0976 30.2929 25.7071C29.9024 25.3166 29.9024 24.6834 30.2929 24.2929ZM15.7071 24.2929C16.0976 24.6834 16.0976 25.3166 15.7071 25.7071C15.3166 26.0976 14.6834 26.0976 14.2929 25.7071L12.2929 23.7071C11.9024 23.3166 11.9024 22.6834 12.2929 22.2929L14.2929 20.2929C14.6834 19.9024 15.3166 19.9024 15.7071 20.2929C16.0976 20.6834 16.0976 21.3166 15.7071 21.7071L14.4142 23L15.7071 24.2929Z" fill="white"/>
</g>
<defs>
<clipPath id="clip0_49_4329">
<rect width="26.298" height="36.4038" fill="white" transform="translate(9 10)"/>
</clipPath>
</defs>
</svg>
