<svg width="64" height="64" viewBox="0 0 64 64" fill="none" xmlns="http://www.w3.org/2000/svg">
<circle cx="32" cy="32" r="32" fill="currentColor"/>
<path d="M24.7397 27.3075C26.0696 27.8839 27 29.2083 27 30.75V35.75C27 37.8211 25.3211 39.5 23.25 39.5C21.1789 39.5 19.5 37.8211 19.5 35.75V30.75C19.5 29.0469 20.6353 27.609 22.1904 27.1518C23.2583 22.754 27.2516 19.5 32 19.5C36.7484 19.5 40.7417 22.754 41.8096 27.1518C43.3647 27.609 44.5 29.0469 44.5 30.75V35.75C44.5 37.4165 43.4129 38.8291 41.9092 39.3174C41.4027 42.2607 38.8379 44.5 35.75 44.5H33.25C32.5596 44.5 32 43.9404 32 43.25C32 42.5596 32.5596 42 33.25 42H35.75C37.4793 42 38.9353 40.8294 39.3686 39.2374C37.9812 38.6873 37 37.3333 37 35.75V30.75C37 29.2083 37.9304 27.8838 39.2603 27.3075C38.3132 24.2418 35.4269 22 32 22C28.5731 22 25.6868 24.2418 24.7397 27.3075Z" fill="white"/>
</svg>
