<svg width="45" height="47" viewBox="0 0 45 47" fill="none" xmlns="http://www.w3.org/2000/svg">
<circle cx="22.5" cy="22.5" r="22.5" fill="currentColor"/>
<g clip-path="url(#clip0_49_4302)">
<path d="M33.1814 28.4899C33.0824 28.3569 32.9354 28.2679 32.7724 28.2439C32.6084 28.2199 32.4414 28.2609 32.3084 28.3589L31.6874 28.8179L26.6264 21.9679L27.1204 21.6619C27.2614 21.5749 27.3614 21.4349 27.3994 21.2739C27.4374 21.1129 27.4104 20.9429 27.3234 20.8029L25.5554 17.9479C25.4684 17.8069 25.3284 17.7069 25.1674 17.6689C25.0064 17.6309 24.8374 17.6589 24.6964 17.7459L23.8814 18.2509L18.7354 11.2849L19.3584 10.8259C19.4914 10.7279 19.5804 10.5799 19.6044 10.4169C19.6294 10.2529 19.5874 10.0869 19.4894 9.95387L17.4954 7.25387C17.2924 6.97687 16.9014 6.91687 16.6244 7.12187L13.9214 9.11587C13.7884 9.21387 13.6994 9.36087 13.6754 9.52487C13.6504 9.68787 13.6914 9.85487 13.7904 9.98787L15.7854 12.6889C15.8834 12.8219 16.0314 12.9109 16.1944 12.9359C16.3584 12.9599 16.5244 12.9189 16.6574 12.8209L17.2804 12.3609L19.8784 15.8789C19.5994 15.7869 19.3154 15.7019 19.0264 15.6339C17.1864 15.2019 15.3074 15.3039 13.5594 15.8909L13.0094 14.9989C12.9224 14.8579 12.7824 14.7569 12.6214 14.7189C12.4604 14.6809 12.2904 14.7089 12.1504 14.7959L9.29537 16.5629C9.00237 16.7439 8.91237 17.1279 9.09337 17.4209L10.8594 20.2759C10.9464 20.4169 11.0864 20.5169 11.2464 20.5549C11.4074 20.5929 11.5774 20.5649 11.7184 20.4779L14.5734 18.7109C14.8664 18.5299 14.9564 18.1459 14.7754 17.8529L14.5414 17.4739C15.8554 17.1079 17.2484 17.0739 18.6114 17.3939C19.9764 17.7159 21.2074 18.3669 22.2204 19.2809L21.8414 19.5149C21.7004 19.6019 21.6004 19.7419 21.5624 19.9029C21.5244 20.0639 21.5524 20.2339 21.6394 20.3739L23.4084 23.2279C23.5894 23.5209 23.9734 23.6119 24.2664 23.4299L24.6404 23.1989C25.3904 25.9199 24.6794 28.8609 22.7674 30.9409L22.5234 30.5469C22.3424 30.2539 21.9584 30.1629 21.6654 30.3449L18.8084 32.1139C18.6674 32.2009 18.5674 32.3409 18.5294 32.5019C18.4914 32.6629 18.5194 32.8319 18.6064 32.9729L20.3754 35.8269C20.5574 36.1199 20.9414 36.2109 21.2344 36.0289L24.0884 34.2609C24.3804 34.0789 24.4714 33.6959 24.2904 33.4029L23.7504 32.5289C25.7464 30.5679 26.7934 27.8829 26.7364 25.1639L30.2304 29.8939L29.6094 30.3529C29.3324 30.5579 29.2734 30.9489 29.4784 31.2259L31.4734 33.9249C31.6774 34.2019 32.0684 34.2609 32.3454 34.0569L35.0444 32.0629C35.1774 31.9649 35.2664 31.8179 35.2904 31.6549C35.3154 31.4909 35.2734 31.3239 35.1754 31.1909L33.1814 28.4899Z" fill="white"/>
</g>
<defs>
<clipPath id="clip0_49_4302">
<rect x="9" y="10" width="26.298" height="36.4038" rx="10" fill="white"/>
</clipPath>
</defs>
</svg>
