<svg width="30" height="24" viewBox="0 0 30 24" fill="none" xmlns="http://www.w3.org/2000/svg">
<path opacity="0.5" d="M13.07 17.856C13.07 19.904 12.4153 21.44 11.1061 22.464C9.79684 23.488 8.32957 24 6.70429 24C5.03386 24 3.49887 23.4453 2.09932 22.336C0.699774 21.184 0 19.456 0 17.152C0 15.0187 0.767494 12.544 2.30248 9.728C3.83747 6.86933 6.5237 3.62667 10.3612 0L14.6953 2.688C13.1603 5.16267 12.0993 7.01867 11.5124 8.256C10.9707 9.45067 10.6998 10.3467 10.6998 10.944C10.6998 11.584 10.9029 12.224 11.3093 12.864C11.7156 13.4613 12.0993 14.1653 12.4605 14.976C12.8668 15.744 13.07 16.704 13.07 17.856ZM28.3747 17.856C28.3747 19.904 27.7201 21.44 26.4108 22.464C25.1016 23.488 23.6343 24 22.009 24C20.3386 24 18.8036 23.4453 17.4041 22.336C16.0045 21.184 15.3047 19.456 15.3047 17.152C15.3047 15.0187 16.0722 12.544 17.6072 9.728C19.1422 6.86933 21.8284 3.62667 25.6659 0L30 2.688C28.465 5.16267 27.4041 7.01867 26.8172 8.256C26.2754 9.45067 26.0045 10.3467 26.0045 10.944C26.0045 11.584 26.2077 12.224 26.614 12.864C27.0203 13.4613 27.4041 14.1653 27.7652 14.976C28.1716 15.744 28.3747 16.704 28.3747 17.856Z" fill="currentColor"/>
</svg>
