<svg width="45" height="45" viewBox="0 0 45 45" fill="none" xmlns="http://www.w3.org/2000/svg">
<circle cx="22.5" cy="22.5" r="22.5" fill="currentColor"/>
<g clip-path="url(#clip0_49_4368)">
<path d="M17.3033 26.4987C17.3092 26.5047 17.3151 26.5047 17.3269 26.5047C17.475 26.5047 17.6171 26.4454 17.7296 26.3448L19.0618 25.1132C19.2986 24.8941 19.3164 24.5211 19.0914 24.2783L17.0901 22.1053L19.0914 19.9323C19.3164 19.6895 19.2986 19.3165 19.0618 19.0974L17.7296 17.8658C17.6111 17.7593 17.4572 17.6941 17.3033 17.7119C17.1434 17.7178 16.9954 17.783 16.8888 17.9014L13.3835 21.7027C13.1703 21.9336 13.1703 22.277 13.3835 22.508L16.8888 26.3093C16.9954 26.4277 17.1434 26.4928 17.3033 26.4987Z" fill="white"/>
<path d="M27.3217 17.9014C27.2151 17.783 27.0671 17.7179 26.9072 17.7119C26.7532 17.7001 26.5993 17.7593 26.4809 17.8659L25.1487 19.0975C24.9118 19.3166 24.8941 19.6896 25.1191 19.9323L27.1203 22.1054L25.1191 24.2784C24.8941 24.5211 24.9118 24.8942 25.1487 25.1132L26.4809 26.3448C26.5934 26.4455 26.7355 26.5047 26.8835 26.5047C26.8954 26.5047 26.9013 26.5047 26.9072 26.4988C27.0671 26.4929 27.2151 26.4277 27.3217 26.3093L30.8329 22.508C31.0401 22.2771 31.0401 21.9336 30.8329 21.7028L27.3217 17.9014Z" fill="white"/>
<path d="M22.0343 15.6099C21.7382 15.6099 21.4896 15.8231 21.4481 16.1132L19.6659 27.9198C19.6422 28.0915 19.6895 28.2632 19.802 28.3934C19.9145 28.5237 20.0803 28.6007 20.252 28.6007H22.1764C22.4724 28.6007 22.7211 28.3875 22.7626 28.0974L24.5448 16.2908C24.5744 16.1191 24.5211 15.9474 24.4086 15.8171C24.2961 15.6868 24.1303 15.6099 23.9586 15.6099H22.0343Z" fill="white"/>
</g>
<defs>
<clipPath id="clip0_49_4368">
<rect width="18.9474" height="23.6842" fill="white" transform="translate(12.6316 12.6316)"/>
</clipPath>
</defs>
</svg>
