<svg width="40" height="40" viewBox="0 0 40 40" fill="none" xmlns="http://www.w3.org/2000/svg">
<path d="M10.625 6.25L11.4571 5.6953C11.2716 5.4171 10.9594 5.25 10.625 5.25C10.2906 5.25 9.97842 5.4171 9.79295 5.6953L10.625 6.25ZM5.625 13.75L4.79295 13.1953C4.58838 13.5022 4.56931 13.8967 4.74333 14.2219C4.91734 14.547 5.2562 14.75 5.625 14.75V13.75ZM15.625 13.75V14.75C15.9938 14.75 16.3327 14.547 16.5067 14.2219C16.6807 13.8967 16.6616 13.5022 16.4571 13.1953L15.625 13.75ZM14.082 13.75V12.75C13.7069 12.75 13.3633 12.9599 13.1922 13.2937C13.021 13.6275 13.0511 14.029 13.27 14.3336L14.082 13.75ZM18.125 19.375V20.375C18.5001 20.375 18.8437 20.1651 19.0148 19.8313C19.186 19.4975 19.1559 19.096 18.937 18.7914L18.125 19.375ZM14.6382 19.375V18.375C14.2705 18.375 13.9324 18.5768 13.7579 18.9005C13.5834 19.2241 13.6006 19.6174 13.8027 19.9246L14.6382 19.375ZM18.75 25.625V26.625C19.1177 26.625 19.4557 26.4232 19.6302 26.0995C19.8047 25.7759 19.7875 25.3826 19.5854 25.0754L18.75 25.625ZM3.125 25.625L2.28958 25.0754C2.08749 25.3826 2.07028 25.7759 2.24477 26.0995C2.41926 26.4232 2.7573 26.625 3.125 26.625V25.625ZM7.23684 19.375L8.07226 19.9246C8.27435 19.6174 8.29156 19.2241 8.11707 18.9005C7.94258 18.5768 7.60454 18.375 7.23684 18.375V19.375ZM3.75 19.375L2.93798 18.7914C2.71905 19.096 2.689 19.4975 2.86016 19.8313C3.03131 20.1651 3.37488 20.375 3.75 20.375V19.375ZM7.79297 13.75L8.60498 14.3336C8.82392 14.029 8.85397 13.6275 8.68281 13.2937C8.51166 12.9599 8.16809 12.75 7.79297 12.75V13.75ZM9.79295 5.6953L4.79295 13.1953L6.45705 14.3047L11.4571 6.8047L9.79295 5.6953ZM16.4571 13.1953L11.4571 5.6953L9.79295 6.8047L14.7929 14.3047L16.4571 13.1953ZM14.082 14.75H15.625V12.75H14.082V14.75ZM18.937 18.7914L14.894 13.1664L13.27 14.3336L17.313 19.9586L18.937 18.7914ZM14.6382 20.375H18.125V18.375H14.6382V20.375ZM13.8027 19.9246L17.9146 26.1746L19.5854 25.0754L15.4736 18.8254L13.8027 19.9246ZM18.75 24.625H3.125V26.625H18.75V24.625ZM3.96042 26.1746L8.07226 19.9246L6.40143 18.8254L2.28958 25.0754L3.96042 26.1746ZM3.75 20.375H7.23684V18.375H3.75V20.375ZM6.98095 13.1664L2.93798 18.7914L4.56202 19.9586L8.60498 14.3336L6.98095 13.1664ZM5.625 14.75H7.79297V12.75H5.625V14.75Z" fill="currentColor"/>
<line x1="10.25" y1="32.75" x2="10.25" y2="26" stroke="currentColor" stroke-width="2" stroke-linecap="round"/>
<line x1="3.5" y1="32.75" x2="36.5" y2="32.75" stroke="currentColor" stroke-width="2" stroke-linecap="round"/>
<path d="M20 33.125L23.8235 25H32.4265L36.25 33.125" stroke="currentColor" stroke-width="2" stroke-linecap="round" stroke-linejoin="round"/>
<path d="M31.875 32.5H28.75L31.875 26.25V32.5Z" fill="currentColor"/>
<path d="M31.2096 11.3715L31.5646 12.3064C31.2837 12.413 30.9698 12.3877 30.7096 12.2375C30.4494 12.0872 30.2706 11.828 30.2225 11.5314L31.2096 11.3715ZM25.0454 11.3413L26.0309 11.5109C25.9679 11.8768 25.7074 12.1777 25.3542 12.2924L25.0454 11.3413ZM31.875 14C32.3582 14 32.75 13.6082 32.75 13.125H34.75C34.75 14.7128 33.4628 16 31.875 16V14ZM32.75 13.125C32.75 12.6418 32.3582 12.25 31.875 12.25V10.25C33.4628 10.25 34.75 11.5372 34.75 13.125H32.75ZM31.875 12.25C31.7638 12.25 31.6597 12.2702 31.5646 12.3064L30.8547 10.4366C31.1731 10.3157 31.5175 10.25 31.875 10.25V12.25ZM30.2225 11.5314C30.0589 10.5214 29.1811 9.75 28.125 9.75V7.75C30.1779 7.75 31.8788 9.24861 32.1968 11.2116L30.2225 11.5314ZM28.125 9.75C27.0761 9.75 26.203 10.5109 26.0309 11.5109L24.0599 11.1717C24.3943 9.22843 26.086 7.75 28.125 7.75V9.75ZM25.3542 12.2924C25.0023 12.4067 24.75 12.7377 24.75 13.125H22.75C22.75 11.8458 23.5847 10.7642 24.7365 10.3902L25.3542 12.2924ZM24.75 13.125C24.75 13.6082 25.1418 14 25.625 14V16C24.0372 16 22.75 14.7128 22.75 13.125H24.75ZM25.625 14H28.125V16H25.625V14ZM28.125 14H31.875V16H28.125V14Z" fill="currentColor"/>
</svg>
