<svg width="48" height="48" viewBox="0 0 48 48" fill="none" xmlns="http://www.w3.org/2000/svg">
<path d="M47.3327 1.09027L46.2565 9.61943C43.5172 9.41391 41.4627 9.96196 40.093 11.2636C38.7233 12.5652 37.8428 14.3464 37.4515 16.6072C37.0601 18.8679 36.9949 21.3684 37.2558 24.1087H47.3327V47.3327H28.1573V21.0259C28.1573 13.8326 29.8204 8.42055 33.1468 4.78966C36.5384 1.15878 41.267 -0.074351 47.3327 1.09027ZM19.8414 1.09027L18.7652 9.61943C16.0259 9.41391 13.9714 9.96196 12.6017 11.2636C11.2321 12.5652 10.3516 14.3464 9.96022 16.6072C9.56888 18.8679 9.50366 21.3684 9.76455 24.1087H19.8414V47.3327H0.666016V21.0259C0.666016 13.8326 2.32919 8.42055 5.65553 4.78966C9.0471 1.15878 13.7757 -0.074351 19.8414 1.09027Z" fill="currentColor" fill-opacity="0.2"/>
</svg>
