<svg width="32" height="35" viewBox="0 0 32 35" fill="none" xmlns="http://www.w3.org/2000/svg">
<path d="M15.9997 3.83301H15.8947C15.5246 2.39532 14.2195 1.33301 12.6663 1.33301C10.8254 1.33301 9.33301 2.82539 9.33301 4.66634M15.9997 3.83301H16.1047C16.4747 2.39532 17.7798 1.33301 19.333 1.33301C21.174 1.33301 22.6663 2.82539 22.6663 4.66634M15.9997 3.83301V31.5977M9.33301 4.66634C7.49206 4.66634 5.99967 6.15873 5.99967 7.99967C5.99967 8.09412 6.0036 8.18764 6.0113 8.28009C4.06324 8.96319 2.66634 10.8183 2.66634 12.9997M9.33301 4.66634C10.0804 4.66634 10.7703 4.91229 11.3262 5.32767M2.66634 12.9997C2.66634 13.9119 2.91065 14.7671 3.33741 15.5034C2.40555 16.4763 1.83301 17.7961 1.83301 19.2497C1.83301 21.5123 3.22031 23.4509 5.1907 24.2613C5.17462 24.3941 5.16634 24.5292 5.16634 24.6663C5.16634 25.9591 5.90224 27.0799 6.97798 27.6329C6.88325 28.0173 6.83301 28.4193 6.83301 28.833C6.83301 31.5944 9.07158 33.833 11.833 33.833C13.4826 33.833 14.9457 33.0341 15.8563 31.8022C15.9062 31.7347 15.954 31.6666 15.9997 31.5977M2.66634 12.9997C2.66634 10.2383 4.90492 7.99967 7.66634 7.99967C8.57706 7.99967 9.43091 8.24316 10.1663 8.66859M15.9997 31.5977C16.0454 31.6666 16.0931 31.7347 16.143 31.8022C17.0537 33.0341 18.5167 33.833 20.1663 33.833C22.9278 33.833 25.1663 31.5944 25.1663 28.833C25.1663 28.4193 25.1161 28.0173 25.0214 27.6329C26.0971 27.0799 26.833 25.9591 26.833 24.6663C26.833 24.5288 26.8247 24.3933 26.8085 24.2601C28.316 23.6394 29.5272 22.3479 29.9818 20.6516C30.4898 18.7556 29.9262 16.825 28.6623 15.5027C29.0889 14.7666 29.333 13.9116 29.333 12.9997M22.6663 4.66634C24.5073 4.66634 25.9997 6.15873 25.9997 7.99967C25.9997 8.09412 25.9957 8.18764 25.988 8.28009C27.9361 8.96319 29.333 10.8183 29.333 12.9997M22.6663 4.66634C21.919 4.66634 21.2291 4.91229 20.6731 5.32767M29.333 12.9997C29.333 10.2383 27.0944 7.99967 24.333 7.99967C24.0491 7.99967 23.7707 8.02334 23.4997 8.06881M14.333 24.6663C15.002 25.0533 15.573 25.5909 15.9997 26.2326C16.4264 25.5909 16.9974 25.0533 17.6663 24.6663M13.4997 10.4997C14.5031 11.1174 15.3596 11.9753 15.9997 12.9997M17.6663 7.16634C16.9974 7.55332 16.4264 8.09085 15.9997 8.7326M7.66634 24.6663C4.44468 24.6663 1.83301 22.2522 1.83301 19.2742C1.83301 18.1891 2.17974 17.1789 2.77638 16.333M23.7502 24.5896C26.4175 25.3043 29.2671 23.3186 30.115 20.1544" stroke="currentColor" stroke-width="2" stroke-linecap="round" fill="none"/>
</svg>
