<svg width="15" height="15" viewBox="0 0 15 15" fill="none" xmlns="http://www.w3.org/2000/svg">
<path d="M6.50361 0.81964C6.87026 0.075815 7.93086 0.0758158 8.29751 0.819641L9.76404 3.7948C9.90947 4.08984 10.1907 4.29449 10.5162 4.34212L13.7996 4.82272C14.6191 4.94266 14.9459 5.94976 14.353 6.52805L11.9769 8.84557C11.7415 9.07524 11.634 9.40604 11.6895 9.73026L12.2498 13.0017C12.3898 13.8188 11.5318 14.4416 10.7982 14.0553L7.86651 12.5114C7.57486 12.3578 7.22625 12.3578 6.9346 12.5114L4.00287 14.0553C3.26932 14.4416 2.41131 13.8188 2.55127 13.0017L3.11158 9.73026C3.16711 9.40604 3.05965 9.07524 2.82416 8.84557L0.448075 6.52805C-0.144824 5.94976 0.181996 4.94266 1.00148 4.82272L4.28495 4.34212C4.61041 4.29449 4.89164 4.08984 5.03707 3.7948L6.50361 0.81964Z" fill="#FDC53D"/>
</svg>
