<svg width="32" height="29" viewBox="0 0 32 29" fill="none" xmlns="http://www.w3.org/2000/svg">
<path d="M31 13.375H29.75C29.75 12.8777 29.5525 12.4008 29.2008 12.0492C28.8492 11.6975 28.3723 11.5 27.875 11.5V10.25H27.25V4.625C27.25 3.46468 26.7891 2.35188 25.9686 1.53141C25.1481 0.710936 24.0353 0.25 22.875 0.25H9.125C7.96468 0.25 6.85188 0.710936 6.03141 1.53141C5.21094 2.35188 4.75 3.46468 4.75 4.625V10.25H4.125V11.5C3.62772 11.5 3.15081 11.6975 2.79917 12.0492C2.44754 12.4008 2.25 12.8777 2.25 13.375H1C0.83424 13.375 0.675269 13.4408 0.558058 13.5581C0.440848 13.6753 0.375 13.8342 0.375 14V19C0.375 19.1658 0.440848 19.3247 0.558058 19.4419C0.675269 19.5592 0.83424 19.625 1 19.625H2.25C2.25 20.1223 2.44754 20.5992 2.79917 20.9508C3.15081 21.3025 3.62772 21.5 4.125 21.5H6.625C6.79076 21.5 6.94973 21.4342 7.06694 21.3169C7.18415 21.1997 7.25 21.0408 7.25 20.875V12.125C7.25 11.9592 7.18415 11.8003 7.06694 11.6831C6.94973 11.5658 6.79076 11.5 6.625 11.5V10.25H6V4.625C6 3.7962 6.32924 3.00134 6.91529 2.41529C7.50134 1.82924 8.2962 1.5 9.125 1.5H22.875C23.2854 1.5 23.6917 1.58083 24.0709 1.73788C24.45 1.89492 24.7945 2.12511 25.0847 2.41529C25.3749 2.70547 25.6051 3.04997 25.7621 3.42911C25.9192 3.80826 26 4.21462 26 4.625V10.25H25.375V11.5C25.2092 11.5 25.0503 11.5658 24.9331 11.6831C24.8158 11.8003 24.75 11.9592 24.75 12.125V20.875C24.75 21.0408 24.8158 21.1997 24.9331 21.3169C25.0503 21.4342 25.2092 21.5 25.375 21.5H26.625C26.5203 22.3171 26.1643 23.0815 25.6062 23.6875C24.375 25.025 22.1375 25.7687 19.125 25.875V25.25C19.125 25.0842 19.0592 24.9253 18.9419 24.8081C18.8247 24.6908 18.6658 24.625 18.5 24.625H12.25C12.0842 24.625 11.9253 24.6908 11.8081 24.8081C11.6908 24.9253 11.625 25.0842 11.625 25.25V27.75C11.625 27.9158 11.6908 28.0747 11.8081 28.1919C11.9253 28.3092 12.0842 28.375 12.25 28.375H18.5C18.6658 28.375 18.8247 28.3092 18.9419 28.1919C19.0592 28.0747 19.125 27.9158 19.125 27.75V27.125C22.5688 27.0312 25.0688 26.1625 26.5375 24.5188C27.2991 23.6843 27.7685 22.6247 27.875 21.5C28.3723 21.5 28.8492 21.3025 29.2008 20.9508C29.5525 20.5992 29.75 20.1223 29.75 19.625H31C31.1658 19.625 31.3247 19.5592 31.4419 19.4419C31.5592 19.3247 31.625 19.1658 31.625 19V14C31.625 13.8342 31.5592 13.6753 31.4419 13.5581C31.3247 13.4408 31.1658 13.375 31 13.375ZM2.25 18.375H1.625V14.625H2.25V18.375ZM6 20.25H4.125C3.95924 20.25 3.80027 20.1842 3.68306 20.0669C3.56585 19.9497 3.5 19.7908 3.5 19.625V13.375C3.5 13.2092 3.56585 13.0503 3.68306 12.9331C3.80027 12.8158 3.95924 12.75 4.125 12.75H6V20.25ZM17.875 27.125H12.875V25.875H17.875V27.125ZM28.5 14V19.625C28.5 19.7908 28.4342 19.9497 28.3169 20.0669C28.1997 20.1842 28.0408 20.25 27.875 20.25H26V12.75H27.875C28.0408 12.75 28.1997 12.8158 28.3169 12.9331C28.4342 13.0503 28.5 13.2092 28.5 13.375V14ZM30.375 18.375H29.75V14.625H30.375V18.375Z" fill="currentColor"/>
</svg>
