<svg width="40" height="40" viewBox="0 0 40 40" fill="none" xmlns="http://www.w3.org/2000/svg">
<g clip-path="url(#clip0_529_58)">
<path d="M37.4335 18.4746C38.2758 28.1028 31.1535 36.5909 21.5253 37.4332C11.8971 38.2756 3.40903 31.1532 2.56667 21.525C1.72431 11.8968 8.84665 3.40876 18.4749 2.56641" stroke="currentColor" stroke-width="2" stroke-linecap="round" stroke-linejoin="round" stroke-dasharray="4 4" fill="none"/>
<path d="M33.4966 21.1237C33.5421 20.5733 33.1328 20.0902 32.5824 20.0447C32.0319 19.9992 31.5489 20.4086 31.5034 20.959L33.4966 21.1237ZM27.2821 19.9997C27.2821 19.4474 26.8344 18.9997 26.2821 18.9997C25.7299 18.9997 25.2821 19.4474 25.2821 19.9997H27.2821ZM21.3198 31.5339C20.9802 31.9694 21.0578 32.5978 21.4933 32.9374C21.9288 33.2771 22.5572 33.1995 22.8968 32.764L21.3198 31.5339ZM7.14726 17.1974C6.71309 17.5387 6.63783 18.1674 6.97916 18.6016C7.3205 19.0358 7.94918 19.111 8.38335 18.7697L7.14726 17.1974ZM20.0214 26.2497V25.2497V26.2497ZM19.2338 8.52606C19.7849 8.48898 20.2015 8.01221 20.1644 7.46117C20.1273 6.91014 19.6506 6.49349 19.0995 6.53058L19.2338 8.52606ZM17.6257 14.9003C18.1736 14.8308 18.5615 14.3304 18.4921 13.7825C18.4226 13.2346 17.9222 12.8467 17.3743 12.9161L17.6257 14.9003ZM20.0214 31.4997C13.6567 31.4997 8.5 26.3493 8.5 19.9997H6.5C6.5 27.4571 12.5554 33.4997 20.0214 33.4997V31.4997ZM31.5034 20.959C31.0158 26.8594 26.0622 31.4997 20.0214 31.4997V33.4997C27.1087 33.4997 32.9238 28.0555 33.4966 21.1237L31.5034 20.959ZM18.7745 31.5996C16.2598 28.4049 14.7607 24.3783 14.7607 19.9996H12.7607C12.7607 24.8431 14.4208 29.3021 17.203 32.8367L18.7745 31.5996ZM14.7607 19.9996C14.7607 15.6509 16.2394 11.6496 18.723 8.46539L17.146 7.23532C14.3981 10.7582 12.7607 15.1893 12.7607 19.9996H14.7607ZM25.2821 19.9997C25.2821 24.3484 23.8035 28.3497 21.3198 31.5339L22.8968 32.764C25.6447 29.2411 27.2821 24.81 27.2821 19.9997H25.2821ZM31.773 21.1397C28.5521 23.712 24.4681 25.2497 20.0214 25.2497V27.2497C24.9375 27.2497 29.4584 25.5478 33.0211 22.7025L31.773 21.1397ZM20.0214 25.2497C15.5747 25.2497 11.4907 23.712 8.26987 21.1397L7.02178 22.7025C10.5845 25.5478 15.1053 27.2497 20.0214 27.2497V25.2497ZM8.5 19.9997C8.5 13.9141 13.2371 8.92964 19.2338 8.52606L19.0995 6.53058C12.0628 7.00414 6.5 12.8516 6.5 19.9997H8.5ZM8.38335 18.7697C10.9954 16.7161 14.1639 15.3389 17.6257 14.9003L17.3743 12.9161C13.5426 13.4017 10.0358 14.9265 7.14726 17.1974L8.38335 18.7697Z" fill="currentColor"/>
<path d="M23.1488 4.67208V2.31506H25.5058L27.8628 4.67208L34.9339 1.13655L36.1124 2.31506L30.8091 7.61836L33.7554 10.5646L36.7017 9.97539L39.0587 12.3324L34.3447 13.5109L33.1662 18.225L30.8091 15.8679L31.3984 12.9217L28.4521 9.97539L23.1488 15.2787L21.9703 14.1002L25.5058 7.02911L23.1488 4.67208Z" stroke="currentColor" stroke-width="2" stroke-linejoin="round" fill="none"/>
</g>
<defs>
<clipPath id="clip0_529_58">
<rect width="40" height="40" fill="white"/>
</clipPath>
</defs>
</svg>
