<svg width="90" height="90" viewBox="0 0 90 90" fill="none" xmlns="http://www.w3.org/2000/svg">
<circle cx="45" cy="45" r="45" fill="currentColor" fill-opacity="0.2"/>
<g clip-path="url(#clip0_77_48583)">
<path d="M40.3914 42.6341C41.1487 43.3831 41.906 44.1322 42.6633 44.8813C43.8664 46.0713 45.0642 47.256 46.2673 48.446C46.5466 48.7222 46.8259 48.9985 47.1052 49.2747C47.5027 49.6678 48.2331 49.6997 48.6252 49.2747C49.0173 48.8497 49.0496 48.191 48.6252 47.7713C47.8679 47.0222 47.1106 46.2731 46.3533 45.5241C45.1501 44.3341 43.9524 43.1494 42.7493 41.9594C42.47 41.6831 42.1907 41.4069 41.9114 41.1306C41.5139 40.7375 40.7834 40.7056 40.3914 41.1306C39.9939 41.5556 39.9617 42.2144 40.3914 42.6341Z" fill="currentColor"/>
<path d="M52.342 49.2375C53.4163 48.175 54.4905 47.1125 55.5647 46.05C57.2673 44.3659 58.97 42.6819 60.6726 40.9978C61.0647 40.61 61.4514 40.2275 61.8435 39.8397C62.241 39.4466 62.2732 38.7241 61.8435 38.3363C61.4138 37.9484 60.7478 37.9166 60.3235 38.3363C59.2493 39.3988 58.1751 40.4613 57.1008 41.5238C55.3982 43.2078 53.6956 44.8919 51.9929 46.5759C51.6008 46.9637 51.2141 47.3462 50.822 47.7341C50.4246 48.1272 50.3923 48.8497 50.822 49.2375C51.2517 49.6253 51.9177 49.6572 52.342 49.2375Z" fill="currentColor"/>
<path d="M36.7068 41.1041C35.6326 42.1666 34.553 43.2344 33.4788 44.2969C31.7654 45.9916 30.0466 47.6916 28.3332 49.3863C27.9412 49.7741 27.5491 50.1619 27.1516 50.555C26.7541 50.9481 26.7219 51.6706 27.1516 52.0584C27.5813 52.4463 28.2473 52.4781 28.6716 52.0584C29.7458 50.9959 30.8254 49.9281 31.8997 48.8656C33.613 47.171 35.3318 45.471 37.0452 43.7763C37.4373 43.3885 37.8293 43.0006 38.2268 42.6075C38.6243 42.2144 38.6565 41.4919 38.2268 41.1041C37.7971 40.7163 37.1311 40.6844 36.7068 41.1041Z" fill="currentColor"/>
<path d="M27.1568 52.0531C27.1998 52.101 27.2428 52.1488 27.2911 52.1966C27.4039 52.3028 27.1568 51.9841 27.2858 52.1913C27.3448 52.2869 27.4093 52.3772 27.463 52.4781C27.4684 52.4888 27.4737 52.4994 27.4791 52.51C27.5275 52.6163 27.5221 52.6003 27.463 52.4569C27.4845 52.4781 27.506 52.5791 27.5113 52.595C27.5489 52.7119 27.5758 52.8288 27.6026 52.9456C27.6564 53.1794 27.5973 52.7597 27.5973 52.9138C27.5973 52.9722 27.608 53.0359 27.608 53.0944C27.608 53.1422 27.608 53.19 27.608 53.2378C27.608 53.2644 27.608 53.2856 27.6026 53.3122C27.5919 53.4078 27.5919 53.4078 27.608 53.3175C27.6134 53.2963 27.6134 53.2697 27.6188 53.2485C27.6134 53.2963 27.6026 53.3441 27.5919 53.3919C27.5812 53.4397 27.5704 53.4875 27.5597 53.5353C27.5489 53.5831 27.5328 53.631 27.5167 53.6735C27.5006 53.7213 27.4845 53.7638 27.4684 53.8116C27.5275 53.6841 27.5382 53.6522 27.5006 53.7266C27.4469 53.8222 27.3985 53.9231 27.3341 54.0188C27.3126 54.0506 27.2804 54.1144 27.2482 54.141C27.4254 53.9869 27.2965 54.0772 27.2428 54.1303C27.232 54.1463 26.985 54.3588 26.9903 54.3694C26.9796 54.3375 27.173 54.2419 26.9957 54.3641C26.9313 54.4066 26.8668 54.4438 26.8024 54.481C26.7701 54.4969 26.6681 54.5713 26.6359 54.566C26.6412 54.566 26.8883 54.4756 26.6842 54.5447C26.5768 54.5819 26.4747 54.6138 26.3673 54.635C26.3404 54.6403 26.2008 54.6828 26.1847 54.6669C26.1793 54.6563 26.4264 54.651 26.2545 54.651C26.1202 54.651 25.986 54.651 25.8517 54.6456C25.6959 54.6456 26.1202 54.7041 25.8839 54.651C25.8356 54.6403 25.7872 54.6297 25.7389 54.6191C25.6637 54.6031 25.4435 54.566 25.3898 54.5075C25.3951 54.5128 25.6207 54.6244 25.4435 54.5235C25.4005 54.5022 25.3522 54.4756 25.3092 54.4544C25.2555 54.4225 25.2018 54.3906 25.1481 54.3535C25.1158 54.3322 25.0836 54.311 25.0568 54.2897C25.1642 54.3694 25.1857 54.3853 25.1266 54.3375C25.046 54.2578 24.9601 54.1728 24.8741 54.0931C24.6969 53.9231 24.9547 54.226 24.8741 54.0985C24.8419 54.0453 24.8043 53.9975 24.7667 53.9444C24.7345 53.8913 24.611 53.7425 24.6271 53.6841C24.6432 53.7213 24.6593 53.7638 24.6754 53.801C24.6593 53.7691 24.6485 53.7319 24.6378 53.7C24.611 53.6203 24.5841 53.5406 24.5626 53.4556C24.5519 53.4078 24.5411 53.36 24.5304 53.3122C24.4874 53.105 24.5465 53.3813 24.5358 53.3813C24.5143 53.376 24.525 53.0466 24.525 53.02C24.525 52.9775 24.5411 52.9138 24.5358 52.8766C24.5734 53.0625 24.5089 53.0359 24.5358 52.9084C24.5626 52.7756 24.6056 52.6535 24.6432 52.5206C24.6808 52.3931 24.7023 52.51 24.6217 52.5685C24.6432 52.5525 24.6754 52.4622 24.6861 52.4356C24.7399 52.34 24.8043 52.1913 24.8902 52.1222C24.7184 52.2763 24.8258 52.2019 24.8688 52.1594C24.9171 52.1169 24.9601 52.0638 25.003 52.0213C25.0353 51.9894 25.1051 51.8991 25.1481 51.8938C25.1158 51.9203 25.0836 51.9416 25.0514 51.9681C25.0943 51.9363 25.1319 51.9097 25.1749 51.8831C25.2555 51.83 25.4488 51.7769 25.5026 51.7025C25.4274 51.8035 25.3307 51.7663 25.4864 51.7131C25.5563 51.6866 25.6261 51.6706 25.6959 51.6494C25.755 51.6335 25.8141 51.6228 25.8732 51.6122C26.0826 51.5644 25.6476 51.6175 25.8785 51.6122C26.0021 51.6122 26.1202 51.6122 26.2438 51.6122C26.4855 51.6122 26.0611 51.5697 26.2115 51.6016C26.2814 51.6175 26.3566 51.6281 26.4264 51.6441C26.4855 51.66 26.5445 51.676 26.6036 51.6972C26.6251 51.7078 26.652 51.7131 26.6735 51.7238C26.7809 51.7663 26.7648 51.7556 26.6197 51.7025C26.6896 51.6866 26.8829 51.8406 26.9474 51.8831C26.9635 51.8938 27.1461 52.0478 27.0226 51.931C26.9098 51.8194 27.1354 52.0319 27.1568 52.0531C27.5597 52.441 28.2794 52.4781 28.6769 52.0531C29.0636 51.6335 29.1066 50.9641 28.6769 50.5497C27.5328 49.45 25.857 49.1897 24.423 49.8697C23.1178 50.486 22.2584 51.9575 22.3927 53.3866C22.527 54.9325 23.6066 56.3031 25.1642 56.675C26.7003 57.0416 28.2472 56.42 29.1388 55.1503C30.1378 53.7319 29.8585 51.761 28.6715 50.5497C28.2794 50.1513 27.5382 50.13 27.1515 50.5497C26.754 50.98 26.7379 51.6281 27.1568 52.0531Z" fill="currentColor"/>
<path d="M40.4074 38.9473C40.4504 38.9951 40.4933 39.0429 40.5417 39.0908C40.6491 39.197 40.4074 38.8783 40.5417 39.0854C40.6008 39.1811 40.6652 39.2714 40.7189 39.3723C40.7243 39.3829 40.7297 39.3936 40.735 39.4042C40.7834 39.5104 40.778 39.4945 40.7189 39.3511C40.735 39.367 40.7673 39.4786 40.7673 39.4892C40.7834 39.5317 40.8854 39.8292 40.8586 39.8451C40.8801 39.8345 40.8371 39.5954 40.8532 39.8186C40.8586 39.877 40.8586 39.9408 40.8586 39.9992C40.8586 40.047 40.8586 40.0948 40.8532 40.1426C40.8532 40.1639 40.8478 40.4083 40.8532 40.217C40.8586 40.0364 40.8425 40.2595 40.8371 40.2914C40.8263 40.3392 40.8156 40.387 40.7995 40.4348C40.7887 40.4826 40.7726 40.5304 40.7565 40.5729C40.7404 40.6208 40.7243 40.6633 40.7028 40.7111C40.7565 40.5836 40.7673 40.557 40.735 40.6261C40.6759 40.7217 40.6276 40.8226 40.5685 40.9183C40.547 40.9501 40.5148 41.0139 40.4826 41.0404C40.6598 40.8811 40.5256 40.982 40.4772 41.0351C40.4611 41.0564 40.2194 41.2529 40.2248 41.2742C40.2194 41.2264 40.402 41.152 40.2301 41.2636C40.1657 41.3061 40.1066 41.3433 40.0368 41.3804C40.0046 41.3964 39.9025 41.4708 39.8703 41.4654C39.8757 41.4654 40.1227 41.3751 39.924 41.4389C39.8166 41.4708 39.7145 41.5026 39.6071 41.5292C39.5104 41.5504 39.3923 41.5239 39.6393 41.5345C39.5964 41.5345 39.5427 41.5451 39.4943 41.5451C39.36 41.5504 39.2311 41.5451 39.0969 41.5398C38.9411 41.5345 39.3654 41.6036 39.1291 41.5398C39.0807 41.5292 39.0324 41.5186 38.9841 41.5079C38.925 41.492 38.8659 41.4761 38.8068 41.4548C38.7155 41.4229 38.5973 41.4442 38.8229 41.4708C38.737 41.4601 38.6349 41.3804 38.5544 41.3379C38.5007 41.3061 38.447 41.2742 38.3932 41.237C38.361 41.2158 38.3288 41.1945 38.3019 41.1733C38.4094 41.2529 38.4308 41.2689 38.3718 41.2211C38.2912 41.1361 38.2053 41.0564 38.1193 40.9767C37.9421 40.8067 38.1999 41.1095 38.1193 40.982C38.0871 40.9289 38.0441 40.8811 38.0119 40.8279C37.9797 40.7748 37.8561 40.6208 37.8669 40.5676C37.883 40.6048 37.8991 40.6473 37.9152 40.6845C37.8991 40.6526 37.8884 40.6154 37.8776 40.5836C37.8508 40.5039 37.8239 40.4242 37.8024 40.3392C37.7917 40.2914 37.7809 40.2436 37.7702 40.1958C37.7272 39.9886 37.7863 40.2648 37.7756 40.2648C37.7541 40.2595 37.7648 39.9301 37.7648 39.9036C37.7648 39.8664 37.7809 39.792 37.7756 39.7601C37.8132 39.9354 37.7487 39.9248 37.7756 39.792C37.8024 39.6592 37.8454 39.537 37.883 39.4042C37.9206 39.2767 37.9421 39.3936 37.8615 39.452C37.883 39.4361 37.9152 39.3458 37.926 39.3192C37.9797 39.2236 38.0441 39.0748 38.1301 39.0004C37.9582 39.1545 38.0656 39.0801 38.1086 39.0376C38.1569 38.9898 38.1999 38.942 38.2429 38.8995C38.2751 38.8676 38.3449 38.7773 38.3879 38.772C38.3556 38.7933 38.3234 38.8198 38.2912 38.8411C38.3342 38.8092 38.3718 38.7826 38.4147 38.7561C38.4953 38.7029 38.6886 38.6498 38.7424 38.5754C38.6672 38.6764 38.5759 38.6392 38.7262 38.5861C38.7961 38.5595 38.8659 38.5436 38.9357 38.5223C38.9948 38.5064 39.0539 38.4958 39.113 38.4851C39.3224 38.4373 38.8874 38.4851 39.1183 38.4851C39.2419 38.4851 39.36 38.4851 39.4836 38.4851C39.7253 38.4851 39.301 38.4426 39.4513 38.4798C39.5212 38.4958 39.5964 38.5064 39.6662 38.5276C39.7253 38.5436 39.7843 38.5595 39.8434 38.5808C39.8649 38.5914 39.8918 38.5967 39.9133 38.6073C40.0207 38.6498 40.0046 38.6445 39.8649 38.5861C39.9347 38.5701 40.1335 38.7295 40.1926 38.7667C40.2087 38.7773 40.3913 38.9314 40.2677 38.8198C40.1603 38.7136 40.3859 38.9261 40.4074 38.9473C40.8102 39.3351 41.53 39.3723 41.9274 38.9473C42.3141 38.5276 42.3571 37.8583 41.9274 37.4439C40.7834 36.3442 39.1076 36.0786 37.6681 36.7533C36.3576 37.3695 35.5036 38.8464 35.6379 40.2754C35.7829 41.8214 36.8625 43.1867 38.4147 43.5692C39.9455 43.9517 41.487 43.3301 42.3786 42.0658C43.383 40.6473 43.1252 38.6604 41.9274 37.4439C41.5353 37.0455 40.7941 37.0242 40.4074 37.4439C40.0099 37.8742 39.9885 38.5223 40.4074 38.9473Z" fill="currentColor"/>
<path d="M64.024 36.1847C64.067 36.2325 64.1099 36.2803 64.1583 36.3282C64.2711 36.4344 64.024 36.1157 64.1529 36.3228C64.212 36.4185 64.2764 36.5088 64.3301 36.6097C64.3355 36.6203 64.3409 36.631 64.3463 36.6416C64.3946 36.7478 64.3892 36.7319 64.3301 36.5885C64.3516 36.6044 64.3731 36.7107 64.3785 36.7266C64.4161 36.8435 64.4429 36.9603 64.4698 37.0772C64.5235 37.311 64.4644 36.8913 64.4644 37.0453C64.4644 37.1038 64.4752 37.1675 64.4752 37.226C64.4752 37.2738 64.4752 37.3216 64.4752 37.3694C64.4752 37.396 64.4698 37.4172 64.4698 37.4438C64.459 37.5394 64.4591 37.5394 64.4752 37.4438C64.4805 37.4225 64.4805 37.396 64.4859 37.3747C64.4805 37.4225 64.4698 37.4703 64.459 37.5182C64.4483 37.566 64.4376 37.6138 64.4268 37.6616C64.4161 37.7094 64.4 37.7572 64.3839 37.7997C64.3677 37.8475 64.3516 37.89 64.3355 37.9378C64.3946 37.8103 64.4053 37.7785 64.3677 37.8528C64.3087 37.9485 64.2657 38.0494 64.2012 38.145C64.1798 38.1769 64.1475 38.2407 64.1153 38.2672C64.2925 38.1132 64.1636 38.2035 64.1099 38.2566C64.0992 38.2725 63.8521 38.485 63.8575 38.4957C63.8467 38.4638 64.0401 38.3682 63.8629 38.4903C63.7984 38.5328 63.734 38.57 63.6695 38.6072C63.6373 38.6232 63.5352 38.6975 63.503 38.6922C63.5084 38.6922 63.7554 38.6019 63.5513 38.671C63.4439 38.7082 63.3419 38.74 63.2344 38.7613C63.2076 38.7666 63.0679 38.8091 63.0518 38.7932C63.0465 38.7878 63.2935 38.7772 63.1216 38.7772C62.9874 38.7772 62.8531 38.7772 62.7188 38.7719C62.5631 38.7666 62.9874 38.8303 62.751 38.7772C62.7027 38.7666 62.6544 38.756 62.606 38.7453C62.5308 38.7294 62.3106 38.6922 62.2569 38.6338C62.2623 38.6391 62.4879 38.7507 62.3106 38.6497C62.2676 38.6285 62.2193 38.6019 62.1763 38.5807C62.1226 38.5488 62.0689 38.5169 62.0152 38.4797C61.983 38.4585 61.9508 38.4372 61.9239 38.416C62.0313 38.4957 62.0528 38.5116 61.9937 38.4638C61.9132 38.3841 61.8272 38.2991 61.7413 38.2194C61.564 38.0494 61.8218 38.3522 61.7413 38.2247C61.7091 38.1716 61.6715 38.1238 61.6339 38.0707C61.6016 38.0175 61.4781 37.8688 61.4942 37.8103C61.5103 37.8475 61.5264 37.89 61.5425 37.9272C61.5264 37.8953 61.5157 37.8582 61.5049 37.8263C61.4781 37.7466 61.4512 37.6669 61.4298 37.5819C61.419 37.5341 61.4083 37.4863 61.3975 37.4385C61.3546 37.2313 61.4136 37.5075 61.4083 37.5075C61.3868 37.5075 61.3975 37.1728 61.3975 37.1463C61.3975 37.1038 61.4136 37.04 61.4083 37.0028C61.4459 37.1941 61.3814 37.1622 61.4083 37.0347C61.4351 36.9019 61.4781 36.7797 61.5157 36.6522C61.5533 36.5247 61.5748 36.6416 61.4942 36.7053C61.5157 36.6894 61.5479 36.5991 61.5587 36.5725C61.6124 36.4769 61.6768 36.3335 61.7628 36.2591C61.5909 36.4132 61.6983 36.3388 61.7413 36.2963C61.7896 36.2538 61.8326 36.2007 61.8756 36.1582C61.9078 36.1263 61.9776 36.036 62.0206 36.0307C61.9883 36.0572 61.9561 36.0785 61.9239 36.105C61.9669 36.0732 62.0045 36.0466 62.0474 36.02C62.128 35.9669 62.3214 35.9138 62.3751 35.8394C62.2999 35.9403 62.2032 35.9032 62.359 35.85C62.4288 35.8235 62.4986 35.8075 62.5684 35.7863C62.6275 35.7703 62.6866 35.7597 62.7457 35.7491C62.9551 35.7013 62.5201 35.7491 62.751 35.7491C62.8746 35.7491 62.9927 35.7491 63.1163 35.7491C63.358 35.7491 62.9337 35.7066 63.0841 35.7438C63.1539 35.7597 63.2291 35.7703 63.2989 35.7863C63.358 35.8022 63.4171 35.8182 63.4761 35.8394C63.4976 35.85 63.5245 35.8553 63.546 35.866C63.6534 35.9085 63.6373 35.8978 63.4923 35.8447C63.5621 35.8288 63.7554 35.9828 63.8199 36.0253C63.836 36.036 64.0186 36.19 63.8951 36.0732C63.7769 35.951 64.0025 36.1688 64.024 36.1847C64.4268 36.5725 65.1465 36.6097 65.544 36.1847C65.9307 35.765 65.9737 35.0957 65.544 34.6813C64.4 33.5816 62.7242 33.3213 61.2901 33.996C59.9849 34.6122 59.1256 36.0838 59.2545 37.5075C59.3941 39.0535 60.4737 40.4241 62.0313 40.796C63.5675 41.1625 65.1143 40.541 66.0113 39.2713C67.0103 37.8582 66.731 35.8872 65.544 34.676C65.1519 34.2775 64.4107 34.2563 64.024 34.676C63.6265 35.1116 63.605 35.7597 64.024 36.1847Z" fill="currentColor"/>
<path d="M50.8219 49.2375C50.8595 49.2747 51.0367 49.4659 50.9454 49.3597C50.8541 49.2587 51.0098 49.45 51.0367 49.4978C51.085 49.5722 51.1173 49.6519 51.1602 49.7262C51.2193 49.8272 51.128 49.6519 51.128 49.6412C51.128 49.6784 51.1656 49.7422 51.1763 49.7794C51.2032 49.859 51.2247 49.944 51.2462 50.0237C51.2569 50.0715 51.2623 50.1194 51.273 50.1672C51.2999 50.2894 51.2515 50.0609 51.2569 50.0662C51.273 50.0715 51.2677 50.2894 51.2677 50.3212C51.2677 50.3584 51.2677 50.3956 51.2677 50.4275C51.2677 50.4487 51.2354 50.6772 51.2677 50.5019C51.2945 50.3372 51.2462 50.5975 51.2354 50.6453C51.2139 50.7303 51.1925 50.81 51.1602 50.8897C51.1495 50.9162 51.1226 50.964 51.1226 50.9906C51.1226 50.98 51.2139 50.8047 51.1549 50.9056C51.1065 50.9906 51.0636 51.0809 51.0098 51.1659C50.983 51.2084 50.9508 51.2509 50.9239 51.2881C50.8594 51.389 50.9722 51.219 50.9722 51.2244C50.9615 51.2881 50.8326 51.3731 50.7843 51.4209C50.7574 51.4475 50.7252 51.474 50.6983 51.5006C50.5533 51.6387 50.7091 51.474 50.7359 51.4794C50.6876 51.474 50.5264 51.6175 50.4835 51.644C50.4459 51.6653 50.2042 51.8034 50.3438 51.7237C50.4727 51.6494 50.2794 51.745 50.231 51.7609C50.1505 51.7875 50.0645 51.8087 49.984 51.8247C49.941 51.8353 49.8765 51.8353 49.8389 51.8512C49.8927 51.83 50.0538 51.8353 49.9088 51.8353C49.8228 51.8353 49.7369 51.8406 49.651 51.8406C49.6134 51.8406 49.5758 51.8353 49.5435 51.8353C49.3555 51.83 49.5811 51.8406 49.6134 51.8512C49.4576 51.7928 49.275 51.7769 49.1138 51.7237C48.9366 51.6653 49.2857 51.814 49.0655 51.6972C48.9849 51.6547 48.9097 51.6122 48.8399 51.5644C48.8184 51.5484 48.7271 51.4794 48.7164 51.4794C48.7325 51.4794 48.8668 51.6069 48.7862 51.5272C48.711 51.4528 48.6304 51.389 48.5606 51.3094C48.5552 51.304 48.4854 51.219 48.4854 51.2244C48.5015 51.2137 48.6036 51.3944 48.5123 51.2562C48.4639 51.1819 48.4156 51.1075 48.3726 51.0331C48.3511 51.0012 48.2491 50.7834 48.3135 50.9269C48.378 51.0597 48.2706 50.794 48.2545 50.7409C48.2437 50.6931 48.2276 50.6453 48.2169 50.5975C48.2008 50.5284 48.1417 50.454 48.2061 50.5603C48.2706 50.6665 48.2115 50.5975 48.2061 50.5178C48.2008 50.47 48.2008 50.4222 48.2008 50.3744C48.2008 50.2787 48.2061 50.1778 48.2115 50.0822C48.2169 49.9334 48.1685 50.2894 48.2008 50.1459C48.2115 50.0981 48.2222 50.0503 48.233 50.0025C48.2545 49.9069 48.2921 49.8165 48.3189 49.7209C48.3511 49.6094 48.2867 49.7953 48.2813 49.8006C48.3135 49.7687 48.3404 49.6731 48.3673 49.6306C48.4156 49.5403 48.4747 49.4606 48.5284 49.3756C48.5875 49.2747 48.4854 49.4394 48.4747 49.4394C48.4747 49.4394 48.6251 49.2747 48.6304 49.264C49.0279 48.8497 49.0494 48.175 48.6304 47.7606C48.233 47.3675 47.5025 47.3356 47.1104 47.7606C46.7183 48.1856 46.6861 48.8444 47.1104 49.264C47.524 49.6731 48.2115 49.6625 48.6304 49.264C48.6627 49.2322 48.7486 49.1153 48.8023 49.11C48.6842 49.195 48.668 49.2056 48.7647 49.1419C48.7969 49.1206 48.8238 49.0994 48.856 49.0781C48.9205 49.0409 48.9849 49.0037 49.0494 48.9665C49.0924 48.9453 49.3126 48.8762 49.1568 48.9134C48.9849 48.9559 49.275 48.8815 49.3072 48.8709C49.377 48.8497 49.4468 48.839 49.522 48.8178C49.7315 48.7647 49.2911 48.8231 49.522 48.8125C49.5972 48.8072 49.6671 48.8019 49.7369 48.8019C49.8121 48.8019 49.8819 48.8072 49.9517 48.8072C50.1988 48.8125 49.71 48.754 49.9517 48.8019C50.0968 48.8284 50.231 48.8709 50.3707 48.9134C50.5909 48.9772 50.1988 48.8178 50.3814 48.9187C50.4459 48.9559 50.5103 48.9878 50.5748 49.025C50.607 49.0462 50.8326 49.2215 50.7091 49.11C50.5802 49.009 50.8004 49.2162 50.8219 49.2375C51.2247 49.6253 51.9444 49.6625 52.3419 49.2375C52.7286 48.8178 52.7716 48.1484 52.3419 47.734C50.8809 46.3315 48.5499 46.374 47.0943 47.7659C47.5992 47.7659 48.1094 47.7659 48.6143 47.7659C48.2169 47.3728 47.4864 47.3409 47.0943 47.7659C46.7022 48.1909 46.67 48.8497 47.0943 49.2694C47.0943 48.77 47.0943 48.2653 47.0943 47.7659C46.294 48.6 45.9288 49.705 46.0845 50.8472C46.2349 51.9628 46.9385 52.9881 47.9429 53.5247C48.9473 54.0559 50.1236 54.109 51.171 53.6734C52.213 53.2378 53.0294 52.3081 53.3033 51.2137C53.6095 49.9653 53.2442 48.6584 52.3365 47.734C51.9444 47.3356 51.2032 47.3144 50.8165 47.734C50.4244 48.1644 50.4029 48.8125 50.8219 49.2375Z" fill="currentColor"/>
</g>
<defs>
<clipPath id="clip0_77_48583">
<rect width="45" height="24" fill="white" transform="translate(22 33)"/>
</clipPath>
</defs>
</svg>
