<svg width="90" height="90" viewBox="0 0 90 90" fill="none" xmlns="http://www.w3.org/2000/svg">
<circle cx="45" cy="45" r="45" fill="currentColor" fill-opacity="0.13"/>
<g clip-path="url(#clip0_77_48678)">
<path d="M57.5999 19.408H32.3999C31.1646 19.408 30.1599 20.427 30.1599 21.68V67.12C30.1599 68.373 31.1646 69.392 32.3999 69.392H57.5999C58.8353 69.392 59.8399 68.373 59.8399 67.12V21.68C59.8399 20.4275 58.8353 19.408 57.5999 19.408ZM58.1599 67.12C58.1599 67.4335 57.909 67.688 57.5999 67.688H32.3999C32.0914 67.688 31.8399 67.4335 31.8399 67.12V21.68C31.8399 21.367 32.0914 21.112 32.3999 21.112H57.5999C57.909 21.112 58.1599 21.367 58.1599 21.68V67.12Z" fill="currentColor"/>
<path d="M32.96 59.452H57.04V25.088H32.96V59.452ZM34.64 26.792H55.36V57.748H34.64V26.792Z" fill="currentColor"/>
<path d="M40.8 23.9519H49.2C49.6636 23.9519 50.04 23.5708 50.04 23.0999C50.04 22.6291 49.6636 22.2479 49.2 22.2479H40.8C40.3357 22.2479 39.96 22.6291 39.96 23.0999C39.96 23.5708 40.3357 23.9519 40.8 23.9519Z" fill="currentColor"/>
<path d="M45 62.0079C43.7646 62.0079 42.76 63.0269 42.76 64.2799C42.76 65.5329 43.7646 66.5519 45 66.5519C46.2354 66.5519 47.24 65.5329 47.24 64.2799C47.24 63.0269 46.2354 62.0079 45 62.0079ZM45 64.8479C44.6914 64.8479 44.44 64.5935 44.44 64.2799C44.44 63.9664 44.6914 63.7119 45 63.7119C45.3086 63.7119 45.56 63.9664 45.56 64.2799C45.56 64.5935 45.3086 64.8479 45 64.8479Z" fill="currentColor"/>
<path d="M41.394 36.4826C41.7221 36.1503 41.7221 35.6101 41.394 35.2778C41.0658 34.945 40.5344 34.945 40.2062 35.2778L38.3957 37.1136C37.5227 37.9997 37.5227 39.4407 38.3957 40.3262L40.2057 42.162C40.3697 42.3284 40.5848 42.4113 40.7998 42.4113C41.0149 42.4113 41.2299 42.3284 41.394 42.162C41.7221 41.8297 41.7221 41.2895 41.394 40.9573L39.5841 39.1215C39.3657 38.9 39.3657 38.5399 39.5841 38.3183L41.394 36.4826Z" fill="currentColor"/>
<path d="M49.794 35.2773C49.4658 34.9445 48.9344 34.9445 48.6062 35.2773C48.2781 35.6096 48.2781 36.1498 48.6062 36.4821L50.4162 38.3184C50.5209 38.4241 50.578 38.5666 50.578 38.7194C50.578 38.8722 50.5203 39.0154 50.4162 39.1216L48.6062 40.9573C48.2781 41.2896 48.2781 41.8298 48.6062 42.1621C48.7703 42.3285 48.9853 42.4114 49.2004 42.4114C49.4154 42.4114 49.6305 42.3285 49.7945 42.1621L51.605 40.3257C52.0267 39.898 52.2586 39.3272 52.2586 38.7194C52.2586 38.1111 52.0262 37.5408 51.6045 37.1131L49.794 35.2773Z" fill="currentColor"/>
<path d="M46.6659 33.6517C46.2257 33.5006 45.7492 33.7437 45.6036 34.1907L42.8036 42.7107C42.6569 43.1572 42.8949 43.6394 43.335 43.7882C43.4224 43.8183 43.512 43.8319 43.5999 43.8319C43.9516 43.8319 44.2792 43.6065 44.3968 43.2492L47.1968 34.7292C47.3435 34.2827 47.1061 33.8005 46.6659 33.6517Z" fill="currentColor"/>
</g>
<defs>
<clipPath id="clip0_77_48678">
<rect width="30" height="51" fill="white" transform="translate(30 19)"/>
</clipPath>
</defs>
</svg>
