<svg width="90" height="90" viewBox="0 0 90 90" fill="none" xmlns="http://www.w3.org/2000/svg">
<circle cx="45" cy="45" r="45" fill="currentColor" fill-opacity="0.33"/>
<path d="M38.0508 60.8326C38.0508 63.0123 39.9848 64.8433 42.2872 64.8433C44.5896 64.8433 46.5237 63.0123 46.5237 60.8326C46.5237 58.653 44.5896 56.822 42.2872 56.822C39.8927 56.822 38.0508 58.653 38.0508 60.8326ZM44.4055 60.8326C44.4055 61.9661 43.3924 62.8379 42.2872 62.8379C41.09 62.8379 40.169 61.8789 40.169 60.8326C40.169 59.7864 41.1821 58.8273 42.2872 58.8273C43.4845 58.8273 44.4055 59.7864 44.4055 60.8326Z" fill="currentColor"/>
<path d="M54.6284 60.8326C54.6284 63.0123 56.5624 64.8433 58.8649 64.8433C61.1673 64.8433 63.1013 63.0123 63.1013 60.8326C63.1013 58.653 61.1673 56.822 58.8649 56.822C56.4704 56.822 54.6284 58.653 54.6284 60.8326ZM60.9831 60.8326C60.9831 61.9661 59.97 62.8379 58.8649 62.8379C57.7597 62.8379 56.7466 61.8789 56.7466 60.8326C56.7466 59.7864 57.7597 58.8273 58.8649 58.8273C59.97 58.8273 60.9831 59.7864 60.9831 60.8326Z" fill="currentColor"/>
<path d="M33.4461 54.032C33.5382 54.4679 33.9066 54.7295 34.3671 54.7295H63.746C64.2986 54.7295 64.7591 54.2936 64.7591 53.7705C64.7591 53.2474 64.2986 52.8115 63.746 52.8115H35.1039L27.2757 25.6975C27.1836 25.2615 26.8152 25 26.3547 25H21.0131C20.4605 25 20 25.4359 20 25.959C20 26.4821 20.4605 26.918 21.0131 26.918H25.6179L33.4461 54.032Z" fill="currentColor"/>
<path d="M68.9034 28.749H31.8804C31.6041 28.749 31.3279 28.9234 31.1437 29.0978C30.9595 29.3593 30.8674 29.6209 30.9595 29.8824L36.6695 50.3704C36.7616 50.8063 37.13 51.0679 37.5904 51.0679H63.1013C63.5618 51.0679 63.9301 50.8063 64.0222 50.3704L69.8243 29.9696C69.9164 29.708 69.8243 29.3593 69.6402 29.1849C69.5481 28.9234 69.2718 28.749 68.9034 28.749ZM62.3645 49.237H38.4193L33.1698 30.667H67.7061L62.3645 49.237Z" fill="currentColor"/>
</svg>
