<svg width="90" height="90" viewBox="0 0 90 90" fill="none" xmlns="http://www.w3.org/2000/svg">
<circle cx="45" cy="45" r="45" fill="currentColor" fill-opacity="0.26"/>
<path d="M68.2 22H42.6C42.3878 22 42.1843 22.0798 42.0343 22.2218C41.8843 22.3638 41.8 22.5565 41.8 22.7573V34.8744C41.7993 34.2721 41.5462 33.6946 41.0963 33.2687C40.6463 32.8427 40.0363 32.6032 39.4 32.6025H37.8V31.8452C37.8 31.0417 37.4629 30.2712 36.8627 29.7031C36.2626 29.135 35.4487 28.8159 34.6 28.8159C33.7513 28.8159 32.9374 29.135 32.3373 29.7031C31.7371 30.2712 31.4 31.0417 31.4 31.8452V32.6025H29.8C29.1637 32.6032 28.5537 32.8427 28.1037 33.2687C27.6538 33.6946 27.4007 34.2721 27.4 34.8744H21.8C21.5878 34.8744 21.3843 34.9542 21.2343 35.0963C21.0843 35.2383 21 35.4309 21 35.6318V66.6819C21 66.8827 21.0843 67.0754 21.2343 67.2174C21.3843 67.3594 21.5878 67.4392 21.8 67.4392H47.4C47.6122 67.4392 47.8157 67.3594 47.9657 67.2174C48.1157 67.0754 48.2 66.8827 48.2 66.6819V54.5648H68.2C68.4122 54.5648 68.6157 54.485 68.7657 54.343C68.9157 54.2009 69 54.0083 69 53.8074V22.7573C69 22.5565 68.9157 22.3638 68.7657 22.2218C68.6157 22.0798 68.4122 22 68.2 22ZM56.2 33.4901C55.6824 33.3164 55.1176 33.3164 54.6 33.4901V31.8452H56.2V33.4901ZM56.2 35.6318C56.2 35.7815 56.1531 35.928 56.0652 36.0525C55.9773 36.177 55.8523 36.2741 55.7061 36.3314C55.56 36.3888 55.3991 36.4038 55.2439 36.3745C55.0887 36.3453 54.9462 36.2732 54.8343 36.1673C54.7224 36.0614 54.6462 35.9264 54.6154 35.7795C54.5845 35.6326 54.6003 35.4803 54.6609 35.3419C54.7214 35.2036 54.824 35.0853 54.9555 35.0021C55.0871 34.9189 55.2418 34.8744 55.4 34.8744C55.6121 34.8747 55.8154 34.9545 55.9654 35.0965C56.1154 35.2385 56.1998 35.431 56.2 35.6318ZM54.6 30.3305V28.6856C55.1176 28.8593 55.6824 28.8593 56.2 28.6856V30.3305H54.6ZM54.6 26.5439C54.6 26.3941 54.6469 26.2477 54.7348 26.1232C54.8227 25.9986 54.9477 25.9016 55.0939 25.8442C55.24 25.7869 55.4009 25.7719 55.5561 25.8012C55.7113 25.8304 55.8538 25.9025 55.9657 26.0084C56.0776 26.1143 56.1538 26.2493 56.1846 26.3962C56.2155 26.5431 56.1997 26.6954 56.1391 26.8337C56.0786 26.9721 55.976 27.0904 55.8445 27.1736C55.7129 27.2568 55.5582 27.3012 55.4 27.3012C55.1879 27.301 54.9846 27.2211 54.8346 27.0792C54.6846 26.9372 54.6002 26.7447 54.6 26.5439ZM57.8 26.5439C57.8 25.9414 57.5471 25.3635 57.0971 24.9374C56.647 24.5113 56.0365 24.272 55.4 24.272C54.7635 24.272 54.153 24.5113 53.7029 24.9374C53.2529 25.3635 53 25.9414 53 26.5439V30.3305H51.7313L44.5314 23.5146H66.2686L59.0686 30.3305H57.8V26.5439ZM29 34.8744C29.0002 34.6737 29.0846 34.4812 29.2346 34.3392C29.3846 34.1972 29.5879 34.1174 29.8 34.1171H32.2C32.4122 34.1171 32.6157 34.0373 32.7657 33.8953C32.9157 33.7533 33 33.5607 33 33.3598V31.8452C33 31.4435 33.1686 31.0582 33.4686 30.7741C33.7687 30.4901 34.1757 30.3305 34.6 30.3305C35.0243 30.3305 35.4313 30.4901 35.7314 30.7741C36.0314 31.0582 36.2 31.4435 36.2 31.8452V33.3598C36.2 33.5607 36.2843 33.7533 36.4343 33.8953C36.5843 34.0373 36.7878 34.1171 37 34.1171H39.4C39.6121 34.1174 39.8154 34.1972 39.9654 34.3392C40.1154 34.4812 40.1998 34.6737 40.2 34.8744V36.3891H29V34.8744ZM46.6 65.9246H22.6V36.3891H27.4V37.1464C27.4 37.3473 27.4843 37.5399 27.6343 37.6819C27.7843 37.8239 27.9878 37.9037 28.2 37.9037H41C41.2122 37.9037 41.4157 37.8239 41.5657 37.6819C41.7157 37.5399 41.8 37.3473 41.8 37.1464V36.3891H46.6V65.9246ZM48.2 53.0501V35.6318C48.2 35.4309 48.1157 35.2383 47.9657 35.0963C47.8157 34.9542 47.6122 34.8744 47.4 34.8744H43.4V24.5857L50.8343 31.6233C50.9843 31.7654 51.1878 31.8452 51.4 31.8452H53V35.6318C52.9997 36.0841 53.1421 36.5262 53.4089 36.9014C53.6758 37.2766 54.055 37.5678 54.4979 37.7376C54.9408 37.9075 55.4271 37.9482 55.8946 37.8546C56.3621 37.761 56.7894 37.5373 57.1217 37.2123C57.3228 37.7719 57.3242 38.3786 57.1256 38.939L57.0411 39.1788L58.5589 39.6579L58.6435 39.418C58.8897 38.7268 58.9414 37.9868 58.7935 37.2709C58.6456 36.555 58.3032 35.8879 57.8 35.3355V31.8452H59.4C59.6122 31.8452 59.8157 31.7654 59.9657 31.6233L67.4 24.5857V53.0501H48.2Z" fill="currentColor"/>
<path d="M34.5998 32.6025C35.0416 32.6025 35.3998 32.2635 35.3998 31.8453C35.3998 31.4271 35.0416 31.0881 34.5998 31.0881C34.158 31.0881 33.7998 31.4271 33.7998 31.8453C33.7998 32.2635 34.158 32.6025 34.5998 32.6025Z" fill="currentColor"/>
<path d="M39.4 53.0503H33V54.5647H39.4V53.0503Z" fill="currentColor"/>
<path d="M31.4 53.0503H29V54.5647H31.4V53.0503Z" fill="currentColor"/>
<path d="M44.1999 56.8369H39.3999V58.3516H44.1999V56.8369Z" fill="currentColor"/>
<path d="M37.8 56.8369H33V58.3516H37.8V56.8369Z" fill="currentColor"/>
<path d="M31.4 56.8369H25V58.3516H31.4V56.8369Z" fill="currentColor"/>
<path d="M44.1998 60.6235H37.7998V62.1382H44.1998V60.6235Z" fill="currentColor"/>
<path d="M36.1998 60.6235H29.7998V62.1382H36.1998V60.6235Z" fill="currentColor"/>
<path d="M28.2 60.6235H25V62.1382H28.2V60.6235Z" fill="currentColor"/>
<path d="M29.32 48.3547L32.52 50.6266C32.6585 50.7249 32.8269 50.7781 33 50.7781H36.2C36.3731 50.7781 36.5415 50.7249 36.68 50.6266L39.88 48.3547C39.9794 48.2842 40.06 48.1927 40.1156 48.0875C40.1711 47.9824 40.2 47.8664 40.2 47.7489V43.205C40.2 43.0803 40.1675 42.9576 40.1054 42.8477C40.0432 42.7378 39.9533 42.6441 39.8438 42.5749L35.0438 39.5457C34.9124 39.4627 34.7579 39.4185 34.6 39.4185C34.4421 39.4185 34.2877 39.4627 34.1563 39.5457L29.3563 42.5749C29.2467 42.6441 29.1568 42.7378 29.0947 42.8477C29.0325 42.9576 29 43.0803 29 43.205V47.7489C29 47.8664 29.0289 47.9824 29.0845 48.0875C29.14 48.1927 29.2207 48.2842 29.32 48.3547ZM35.9333 49.2635H33.2667L30.6 47.3702V44.62L34.1563 46.8643C34.2877 46.9473 34.4421 46.9915 34.6 46.9915C34.7579 46.9915 34.9123 46.9473 35.0438 46.8643L38.6 44.62V47.3702L35.9333 49.2635ZM34.6 41.086L37.9578 43.205L34.6 45.3241L31.2422 43.205L34.6 41.086Z" fill="currentColor"/>
<path d="M64.9998 43.2048H58.5998C58.3876 43.2048 58.1842 43.2846 58.0341 43.4267C57.8841 43.5687 57.7998 43.7613 57.7998 43.9622V50.7783C57.7998 50.9792 57.8841 51.1718 58.0341 51.3138C58.1842 51.4558 58.3876 51.5356 58.5998 51.5356H64.9998C65.212 51.5356 65.4155 51.4558 65.5655 51.3138C65.7155 51.1718 65.7998 50.9792 65.7998 50.7783V43.9622C65.7998 43.7613 65.7155 43.5687 65.5655 43.4267C65.4155 43.2846 65.212 43.2048 64.9998 43.2048ZM64.1998 50.021H59.3998V44.7195H64.1998V50.021Z" fill="currentColor"/>
<path d="M64.9999 37.9038H63.3999V41.6907H64.9999V37.9038Z" fill="currentColor"/>
<path d="M64.9999 31.8452H63.3999V36.3892H64.9999V31.8452Z" fill="currentColor"/>
<path d="M61.8002 40.1758H60.2002V41.6907H61.8002V40.1758Z" fill="currentColor"/>
<path d="M61.8002 36.3892H60.2002V38.6611H61.8002V36.3892Z" fill="currentColor"/>
</svg>
