<svg width="55" height="55" viewBox="0 0 55 55" fill="none" xmlns="http://www.w3.org/2000/svg">
<rect width="55" height="55.0002" rx="27.5" fill="currentColor" fill-opacity="0.05"/>
<path d="M22.9545 26.3638H18.4089C17.5048 26.3638 16.6377 26.0047 15.9984 25.365C15.3591 24.7257 15 23.8585 15 22.9545V18.4089C15 17.5048 15.3591 16.6377 15.9984 15.9984C16.6376 15.3591 17.5049 15 18.4089 15H22.9545C23.8585 15 24.7257 15.3591 25.365 15.9984C26.0047 16.6377 26.3638 17.5049 26.3638 18.4089V22.9545C26.3638 23.8585 26.0047 24.7257 25.365 25.365C24.7257 26.0047 23.8585 26.3638 22.9545 26.3638ZM18.4089 17.2726C17.7815 17.2726 17.2726 17.7815 17.2726 18.4089V22.9544C17.2726 23.2561 17.3923 23.545 17.6055 23.7582C17.8188 23.9711 18.1077 24.0907 18.4089 24.0907H22.9545C23.2561 24.0907 23.545 23.971 23.7583 23.7582C23.9711 23.545 24.0908 23.2561 24.0908 22.9544V18.4089C24.0908 18.1076 23.9711 17.8187 23.7583 17.6055C23.545 17.3923 23.2561 17.2726 22.9545 17.2726L18.4089 17.2726Z" fill="currentColor"/>
<path d="M22.9545 40.0002H18.4089C17.5048 40.0002 16.6377 39.6411 15.9984 39.0018C15.3591 38.3626 15 37.4953 15 36.5913V32.0457C15 31.1417 15.3591 30.2745 15.9984 29.6352C16.6377 28.9955 17.5049 28.6364 18.4089 28.6364H22.9545C23.8585 28.6364 24.7257 28.9955 25.365 29.6352C26.0047 30.2745 26.3638 31.1417 26.3638 32.0457V36.5913C26.3638 37.4954 26.0047 38.3625 25.365 39.0018C24.7257 39.6411 23.8585 40.0002 22.9545 40.0002ZM18.4089 30.9094C17.7815 30.9094 17.2726 31.4179 17.2726 32.0457V36.5913C17.2726 36.8925 17.3923 37.1814 17.6055 37.3947C17.8188 37.6079 18.1077 37.7276 18.4089 37.7276H22.9545C23.2561 37.7276 23.545 37.6079 23.7583 37.3947C23.9711 37.1814 24.0908 36.8925 24.0908 36.5913V32.0457C24.0908 31.7441 23.9711 31.4552 23.7583 31.2419C23.545 31.0291 23.2561 30.9094 22.9545 30.9094L18.4089 30.9094Z" fill="currentColor"/>
<path d="M36.5909 26.3638H32.0453C31.1412 26.3638 30.2741 26.0047 29.6348 25.365C28.9951 24.7257 28.636 23.8585 28.636 22.9545V18.4089C28.636 17.5048 28.9951 16.6377 29.6348 15.9984C30.274 15.3591 31.1413 15 32.0453 15H36.5909C37.4949 15 38.3621 15.3591 39.0014 15.9984C39.6407 16.6376 39.9997 17.5049 39.9997 18.4089V22.9545C39.9997 23.8585 39.6407 24.7257 39.0014 25.365C38.3621 26.0047 37.4949 26.3638 36.5909 26.3638V26.3638ZM32.0453 17.2726C31.4175 17.2726 30.909 17.7815 30.909 18.4089V22.9544C30.909 23.2561 31.0287 23.545 31.2415 23.7582C31.4548 23.9711 31.7437 24.0907 32.0453 24.0907H36.5909C36.8921 24.0907 37.181 23.971 37.3942 23.7582C37.6075 23.545 37.7272 23.2561 37.7272 22.9544V18.4089C37.7272 18.1076 37.6075 17.8187 37.3942 17.6055C37.181 17.3923 36.8921 17.2726 36.5909 17.2726L32.0453 17.2726Z" fill="currentColor"/>
<path d="M34.3181 40.0002C32.8112 40.0002 31.3662 39.4017 30.3004 38.336C29.2351 37.2707 28.6362 35.8253 28.6362 34.3184C28.6362 32.8114 29.2351 31.3664 30.3004 30.3007C31.3662 29.2353 32.8112 28.6365 34.3181 28.6365C35.825 28.6365 37.2704 29.2354 38.3358 30.3007C39.4015 31.3664 39.9999 32.8114 39.9999 34.3184C39.9999 35.8253 39.4015 37.2707 38.3358 38.336C37.2704 39.4018 35.825 40.0002 34.3181 40.0002ZM34.3181 30.909V30.9094C33.414 30.9094 32.5469 31.2685 31.9076 31.9078C31.2683 32.5471 30.9092 33.4143 30.9092 34.3183C30.9092 35.2224 31.2683 36.0895 31.9076 36.7288C32.5468 37.3685 33.4141 37.7276 34.3181 37.7276C35.2221 37.7276 36.0893 37.3685 36.7286 36.7288C37.3683 36.0896 37.7274 35.2223 37.7274 34.3183C37.7274 33.4143 37.3683 32.5471 36.7286 31.9078C36.0893 31.2685 35.2221 30.9094 34.3181 30.9094V30.909Z" fill="currentColor"/>
</svg>
