<svg width="90" height="90" viewBox="0 0 90 90" fill="none" xmlns="http://www.w3.org/2000/svg">
<circle cx="45" cy="45" r="45" fill="currentColor" fill-opacity="0.31"/>
<g clip-path="url(#clip0_77_48628)">
<path d="M46.2783 45.4278C46.2628 45.202 46.1766 44.9871 46.0321 44.8141C45.8876 44.6412 45.6923 44.5192 45.4746 44.4659L42.8355 43.648C42.1554 43.447 41.5564 43.032 41.1258 42.4632C40.6953 41.8945 40.4555 41.2017 40.4415 40.4858C40.4577 39.6741 40.7608 38.895 41.2961 38.2896C41.8315 37.6842 42.5636 37.2924 43.3599 37.1853V36.448C43.3599 36.1425 43.4801 35.8495 43.6938 35.6334C43.9076 35.4174 44.1976 35.296 44.4999 35.296C44.8023 35.296 45.0923 35.4174 45.306 35.6334C45.5198 35.8495 45.6399 36.1425 45.6399 36.448V37.1334H47.4183C47.7207 37.1334 48.0107 37.2548 48.2244 37.4709C48.4382 37.6869 48.5583 37.9799 48.5583 38.2854C48.5583 38.591 48.4382 38.884 48.2244 39.1C48.0107 39.3161 47.7207 39.4374 47.4183 39.4374H43.9983C43.6984 39.4068 43.3987 39.4975 43.1647 39.6896C42.9308 39.8818 42.7817 40.1598 42.75 40.4627C42.7655 40.6885 42.8518 40.9035 42.9963 41.0764C43.1408 41.2494 43.336 41.3713 43.5537 41.4246L46.1928 42.2656C46.873 42.4666 47.472 42.8816 47.9025 43.4504C48.3331 44.0191 48.5728 44.7119 48.5868 45.4278C48.5632 46.2395 48.2532 47.0159 47.7128 47.617C47.1724 48.218 46.4372 48.604 45.6399 48.7053V49.4426C45.6399 49.7481 45.5198 50.0411 45.306 50.2572C45.0923 50.4732 44.8023 50.5946 44.4999 50.5946C44.1976 50.5946 43.9076 50.4732 43.6938 50.2572C43.4801 50.0411 43.3599 49.7481 43.3599 49.4426V48.7571H41.5815C41.2792 48.7571 40.9892 48.6358 40.7754 48.4197C40.5617 48.2037 40.4415 47.9107 40.4415 47.6051C40.4415 47.2996 40.5617 47.0066 40.7754 46.7905C40.9892 46.5745 41.2792 46.4531 41.5815 46.4531H45.0015C45.1523 46.4723 45.3053 46.4609 45.4516 46.4195C45.5979 46.3782 45.7346 46.3076 45.8535 46.2121C45.9725 46.1166 46.0714 45.998 46.1443 45.8633C46.2173 45.7286 46.2628 45.5806 46.2783 45.4278ZM62.7399 39.8522C62.7399 39.8522 62.7399 39.8867 62.7399 39.904V61.216C62.7399 61.5215 62.6198 61.8146 62.406 62.0306C62.1923 62.2466 61.9023 62.368 61.5999 62.368H27.3999C27.0976 62.368 26.8076 62.2466 26.5938 62.0306C26.3801 61.8146 26.2599 61.5215 26.2599 61.216V39.904C26.2599 39.904 26.2599 39.8694 26.2599 39.8522C26.2599 39.8349 26.2599 39.7254 26.2599 39.6621C26.2581 39.6352 26.2581 39.6083 26.2599 39.5814C26.2599 39.5238 26.2998 39.4662 26.3226 39.4086L26.3568 39.3453C26.3958 39.2737 26.4416 39.2062 26.4936 39.1437C26.5546 39.0816 26.6214 39.0256 26.6931 38.9766L30.0333 36.7245V32.7501C30.0333 32.4446 30.1534 32.1515 30.3672 31.9355C30.581 31.7195 30.871 31.5981 31.1733 31.5981H37.6599L43.8558 27.4278C44.0432 27.3015 44.2633 27.2341 44.4885 27.2341C44.7137 27.2341 44.9339 27.3015 45.1212 27.4278L51.3399 31.5981H57.7524C58.0548 31.5981 58.3448 31.7195 58.5585 31.9355C58.7723 32.1515 58.8924 32.4446 58.8924 32.7501V36.6957L62.2326 38.9478C62.3031 39.0006 62.3698 39.0584 62.4321 39.1206C62.4842 39.1831 62.53 39.2507 62.5689 39.3222L62.6031 39.3856C62.6031 39.4432 62.6487 39.5008 62.6658 39.5584C62.6677 39.5852 62.6677 39.6122 62.6658 39.639C62.7399 39.7254 62.7399 39.7888 62.7399 39.8522ZM58.8981 39.4662V40.8429L59.7645 40.048L58.8981 39.4662ZM41.7981 31.5981H47.2359L44.4999 29.7664L41.7981 31.5981ZM32.4045 33.9021V37.312V42.9453L44.4999 54.137L56.6124 42.951V37.312V33.9021H32.4045ZM30.1245 39.4662L29.2581 40.0422L30.1245 40.8371V39.4662ZM60.4599 60.064V42.496L45.2694 56.5446C45.0593 56.7389 44.7848 56.8467 44.4999 56.8467C44.2151 56.8467 43.9406 56.7389 43.7304 56.5446L28.5399 42.496V60.064H60.4599Z" fill="currentColor"/>
</g>
<defs>
<clipPath id="clip0_77_48628">
<rect width="37" height="36" fill="currentColor" transform="translate(26 27)"/>
</clipPath>
</defs>
</svg>
