<svg width="55" height="55" viewBox="0 0 55 55" fill="none" xmlns="http://www.w3.org/2000/svg">
<rect width="55" height="55" rx="27.5" fill="#2A68A0" fill-opacity="0.05"/>
<path d="M38.0002 16.111H30.2224C29.6945 15.4166 28.8891 15 28.0001 15C27.1111 15 26.3056 15.4166 25.7778 16.111H18.5555C18.2499 16.111 18 16.361 18 16.6665V39.4445C18 39.7501 18.25 40 18.5555 40H38.0001C38.3057 40 38.5556 39.75 38.5556 39.4445V16.6665C38.5556 16.361 38.3057 16.1108 38.0001 16.1108L38.0002 16.111ZM23.8334 17.2222H26.0834C26.2779 17.2222 26.4723 17.1112 26.5556 16.9444C26.8612 16.4165 27.4167 16.111 28.0001 16.111C28.5835 16.111 29.1391 16.4166 29.4446 16.9444C29.5556 17.111 29.7225 17.2222 29.9168 17.2222H32.1668V18.889L23.8334 18.8888L23.8334 17.2222ZM23.2779 20H32.7224C33.028 20 33.2779 19.7501 33.2779 19.4445V18.889H35.7779V33.8891H33.0003C32.6947 33.8891 32.4448 34.1391 32.4448 34.4446V37.2224H20.778V18.889H22.7224V19.4445C22.7224 19.7502 22.9724 20.0002 23.2779 20.0002V20ZM35.0002 35.0002L33.5557 36.4447V35.0002H35.0002ZM37.4447 38.8892H19.1113V17.2223H22.7225V17.7778H20.2225C19.917 17.7778 19.667 18.0278 19.667 18.3334V37.778C19.667 38.0835 19.917 38.3335 20.2225 38.3335H33.0004C33.1393 38.3335 33.2783 38.2779 33.3893 38.1668L36.7226 34.8335C36.8336 34.7225 36.8892 34.5836 36.8892 34.4446V18.3334C36.8892 18.0278 36.6393 17.7779 36.3337 17.7779H33.2781V17.2224H37.4448L37.4447 38.8892ZM28.0002 33.6114C31.2225 33.6114 33.8336 31.0002 33.8336 27.778C33.8336 24.5557 31.2224 21.9446 28.0002 21.9446C24.7779 21.9446 22.1668 24.5558 22.1668 27.778C22.167 31.0003 24.7782 33.6114 28.0002 33.6114ZM28.0002 23.0557C30.6114 23.0557 32.7224 25.1668 32.7224 27.7779C32.7224 30.3891 30.6114 32.5001 28.0002 32.5001C25.389 32.5001 23.278 30.3891 23.278 27.7779C23.278 25.1669 25.3892 23.0557 28.0002 23.0557ZM24.8615 28.3613C24.6392 28.1391 24.6392 27.7779 24.8615 27.5835C25.0837 27.3613 25.417 27.3613 25.6392 27.5835L27.2227 29.167L30.3617 26.028C30.5839 25.8058 30.9172 25.8058 31.1394 26.028C31.3617 26.2503 31.3617 26.5835 31.1394 26.8058L27.6114 30.3058C27.5004 30.4168 27.3614 30.4724 27.2225 30.4724C27.0836 30.4724 26.9446 30.4168 26.8336 30.3058L24.8615 28.3613Z" fill="currentColor"/>
</svg>
