<svg width="42" height="52" viewBox="0 0 42 52" fill="none" xmlns="http://www.w3.org/2000/svg">
<path d="M41.6385 0.862793H36.6265C28.9611 0.862793 22.747 7.07687 22.747 14.7423V24.6122H27.759C35.4245 24.6122 41.6385 18.3981 41.6385 10.7327V0.862793Z" fill="#2A68A0"/>
<path d="M20.9735 26.4629H13.8795C6.21409 26.4629 1.71661e-05 32.677 1.71661e-05 40.3424V51.1376H7.09399C14.7594 51.1376 20.9735 44.9235 20.9735 37.2581V26.4629Z" fill="#2A68A0"/>
<path d="M0 0.862793L4.04462e-07 10.1158C7.39529e-07 17.7812 6.21408 23.9953 13.8795 23.9953L20.9735 23.9953L20.9735 14.7423C20.9735 7.07687 14.7594 0.862792 7.09397 0.862793L0 0.862793Z" fill="#FFAD4A"/>
<path d="M22.8241 26.4629L22.8241 37.2581C22.8241 44.9235 29.0382 51.1376 36.7036 51.1376L41.6386 51.1376L41.6386 40.3424C41.6386 32.677 35.4245 26.4629 27.759 26.4629L22.8241 26.4629Z" fill="#FFAD4A"/>
</svg>
