<svg width="49" height="42" viewBox="0 0 49 42" fill="none" xmlns="http://www.w3.org/2000/svg">
<path d="M25 0C11.6875 0 1 8.8125 1 19.5C1 24.1875 2.96875 28.4062 6.34375 31.7812C5.125 36.5625 1.1875 40.6875 1.1875 40.7812C1 40.9688 0.90625 41.3438 1 41.625C1.1875 41.9062 1.375 42 1.75 42C7.9375 42 12.625 39.0938 14.875 37.2188C17.9688 38.3438 21.3438 39 25 39C38.2188 39 49 30.2812 49 19.5C49 8.8125 38.2188 0 25 0ZM13 22.5C11.3125 22.5 10 21.1875 10 19.5C10 17.9062 11.3125 16.5 13 16.5C14.5938 16.5 16 17.9062 16 19.5C16 21.1875 14.5938 22.5 13 22.5ZM25 22.5C23.3125 22.5 22 21.1875 22 19.5C22 17.9062 23.3125 16.5 25 16.5C26.5938 16.5 28 17.9062 28 19.5C28 21.1875 26.5938 22.5 25 22.5ZM37 22.5C35.3125 22.5 34 21.1875 34 19.5C34 17.9062 35.3125 16.5 37 16.5C38.5938 16.5 40 17.9062 40 19.5C40 21.1875 38.5938 22.5 37 22.5Z" fill="currentColor"/>
</svg>
