<svg width="128" height="52" viewBox="0 0 128 52" fill="none" xmlns="http://www.w3.org/2000/svg">
<path d="M41.6387 0.862793H36.6266C28.9612 0.862793 22.7471 7.07687 22.7471 14.7423V24.6122H27.7592C35.4246 24.6122 41.6387 18.3981 41.6387 10.7327V0.862793Z" fill="#2A68A0"/>
<path d="M20.9736 26.4629H13.8797C6.21421 26.4629 0.000139236 32.677 0.000139236 40.3424V51.1376H7.09411C14.7596 51.1376 20.9736 44.9235 20.9736 37.2581V26.4629Z" fill="#2A68A0"/>
<path d="M0 0.862793L4.04462e-07 10.1158C7.39529e-07 17.7812 6.21408 23.9953 13.8795 23.9953L20.9735 23.9953L20.9735 14.7423C20.9735 7.07687 14.7594 0.862792 7.09397 0.862793L0 0.862793Z" fill="#FFAD4A"/>
<path d="M22.8242 26.4629L22.8242 37.2581C22.8242 44.9235 29.0383 51.1376 36.7037 51.1376L41.6387 51.1376L41.6387 40.3424C41.6387 32.677 35.4246 26.4629 27.7592 26.4629L22.8242 26.4629Z" fill="#FFAD4A"/>
<path d="M53.2882 9.05544V21.335H50.5472V9.05544H53.2882ZM58.0111 14.1241V21.335H55.3797V12.2097H57.8508L58.0111 14.1241ZM57.6737 16.4518L57.0074 16.4687C57.0074 15.8277 57.0833 15.2402 57.2352 14.706C57.3926 14.1663 57.6203 13.6968 57.9183 13.2976C58.2163 12.8984 58.5845 12.5892 59.0231 12.3699C59.4673 12.1506 59.9789 12.041 60.558 12.041C60.9629 12.041 61.3311 12.1028 61.6629 12.2265C61.9946 12.3446 62.2785 12.533 62.5147 12.7916C62.7564 13.0446 62.942 13.3763 63.0713 13.7868C63.2006 14.1916 63.2653 14.6779 63.2653 15.2458V21.335H60.6339V15.5663C60.6339 15.1615 60.5833 14.855 60.4821 14.647C60.3866 14.4334 60.246 14.2872 60.0605 14.2085C59.8749 14.1297 59.6528 14.0904 59.3942 14.0904C59.1131 14.0904 58.8629 14.1522 58.6436 14.2759C58.4299 14.394 58.25 14.5599 58.1038 14.7735C57.9576 14.9872 57.848 15.2374 57.7749 15.5241C57.7074 15.8109 57.6737 16.1201 57.6737 16.4518ZM62.9954 16.3169L62.1605 16.3844C62.1605 15.7659 62.2335 15.1924 62.3797 14.6639C62.5259 14.1354 62.7452 13.6771 63.0376 13.2892C63.3299 12.8956 63.6926 12.5892 64.1255 12.3699C64.5641 12.1506 65.0729 12.041 65.652 12.041C66.0793 12.041 66.4673 12.1028 66.8159 12.2265C67.1701 12.3502 67.4737 12.5498 67.7267 12.8253C67.9854 13.1008 68.185 13.4635 68.3255 13.9133C68.4661 14.3575 68.5364 14.9028 68.5364 15.5494V21.335H65.8882V15.5494C65.8882 15.1502 65.8376 14.8466 65.7364 14.6386C65.6408 14.4305 65.5002 14.2872 65.3147 14.2085C65.1348 14.1297 64.9183 14.0904 64.6653 14.0904C64.3841 14.0904 64.1396 14.1494 63.9315 14.2675C63.7235 14.3799 63.5492 14.5374 63.4086 14.7398C63.2681 14.9366 63.1641 15.1699 63.0966 15.4398C63.0291 15.7097 62.9954 16.002 62.9954 16.3169ZM72.9388 13.9639V24.8434H70.3074V12.2097H72.7617L72.9388 13.9639ZM78.6315 16.6711V16.8482C78.6315 17.5117 78.5556 18.1273 78.4038 18.6952C78.252 19.2575 78.0243 19.7494 77.7207 20.1711C77.4227 20.5928 77.0544 20.9217 76.6159 21.1579C76.1773 21.3884 75.6685 21.5036 75.0894 21.5036C74.5384 21.5036 74.0605 21.3884 73.6556 21.1579C73.2564 20.9217 72.9191 20.5956 72.6436 20.1795C72.3737 19.7579 72.1544 19.2771 71.9858 18.7374C71.8227 18.192 71.6962 17.6101 71.6062 16.9916V16.6458C71.6962 15.988 71.8255 15.3779 71.9942 14.8157C72.1629 14.2534 72.3821 13.7671 72.652 13.3566C72.9219 12.9406 73.2564 12.6173 73.6556 12.3868C74.0548 12.1562 74.5299 12.041 75.0809 12.041C75.6544 12.041 76.1633 12.1506 76.6074 12.3699C77.0516 12.5892 77.4227 12.904 77.7207 13.3145C78.0243 13.7193 78.252 14.2056 78.4038 14.7735C78.5556 15.3414 78.6315 15.9739 78.6315 16.6711ZM75.9918 16.8482V16.6711C75.9918 16.3 75.9637 15.9599 75.9074 15.6506C75.8512 15.3358 75.7613 15.0631 75.6376 14.8326C75.5139 14.5964 75.3508 14.4137 75.1484 14.2844C74.946 14.155 74.6986 14.0904 74.4062 14.0904C74.0914 14.0904 73.8243 14.141 73.605 14.2422C73.3858 14.3434 73.2086 14.4924 73.0737 14.6892C72.9388 14.8803 72.8404 15.1165 72.7785 15.3976C72.7223 15.6787 72.6914 15.9992 72.6858 16.3591V17.2868C72.6914 17.7085 72.7504 18.0852 72.8629 18.4169C72.9809 18.743 73.1637 18.9988 73.4111 19.1844C73.6641 19.3643 74.0014 19.4542 74.4231 19.4542C74.7211 19.4542 74.9685 19.3896 75.1653 19.2603C75.3677 19.1253 75.5279 18.937 75.646 18.6952C75.7697 18.4534 75.8568 18.1751 75.9074 17.8603C75.9637 17.5454 75.9918 17.2081 75.9918 16.8482ZM84.8641 19.1591V15.2458C84.8641 14.9703 84.8219 14.7342 84.7376 14.5374C84.6532 14.3406 84.5211 14.186 84.3412 14.0735C84.1613 13.9611 83.9279 13.9048 83.6412 13.9048C83.3994 13.9048 83.1886 13.947 83.0086 14.0313C82.8343 14.1157 82.6994 14.2366 82.6038 14.394C82.5139 14.5514 82.4689 14.7454 82.4689 14.9759H79.8376C79.8376 14.5655 79.9303 14.1832 80.1159 13.8289C80.3014 13.4747 80.5657 13.1627 80.9086 12.8928C81.2572 12.6229 81.6733 12.4149 82.1568 12.2687C82.6404 12.1169 83.1829 12.041 83.7845 12.041C84.4986 12.041 85.1339 12.1619 85.6906 12.4036C86.2528 12.6398 86.697 12.9968 87.0231 13.4747C87.3492 13.947 87.5123 14.543 87.5123 15.2627V19.0832C87.5123 19.6342 87.5432 20.0671 87.605 20.3819C87.6725 20.6912 87.7681 20.9611 87.8918 21.1916V21.335H85.2352C85.1115 21.0707 85.0187 20.7446 84.9568 20.3566C84.895 19.9631 84.8641 19.5639 84.8641 19.1591ZM85.193 15.7687L85.2099 17.2193H83.9026C83.6103 17.2193 83.3572 17.2558 83.1436 17.3289C82.9356 17.402 82.7669 17.5032 82.6376 17.6326C82.5082 17.7562 82.4127 17.9024 82.3508 18.0711C82.2946 18.2342 82.2665 18.4141 82.2665 18.6109C82.2665 18.7964 82.3115 18.9651 82.4014 19.1169C82.4914 19.2631 82.6151 19.3783 82.7725 19.4627C82.9299 19.547 83.1127 19.5892 83.3207 19.5892C83.6637 19.5892 83.956 19.5217 84.1978 19.3868C84.4452 19.2518 84.6364 19.0888 84.7713 18.8976C84.9062 18.7008 84.9737 18.5181 84.9737 18.3494L85.6062 19.4458C85.505 19.6707 85.3813 19.904 85.2352 20.1458C85.089 20.3819 84.9034 20.604 84.6785 20.8121C84.4536 21.0145 84.1809 21.1803 83.8605 21.3097C83.5456 21.439 83.1661 21.5036 82.7219 21.5036C82.1484 21.5036 81.6283 21.3884 81.1617 21.1579C80.695 20.9217 80.3211 20.5984 80.04 20.188C79.7645 19.7775 79.6267 19.3052 79.6267 18.7711C79.6267 18.2932 79.7139 17.8687 79.8882 17.4976C80.0625 17.1265 80.3239 16.8117 80.6725 16.553C81.0267 16.2944 81.4709 16.1004 82.005 15.9711C82.5392 15.8362 83.1633 15.7687 83.8773 15.7687H85.193ZM93.0532 19.4542C93.3343 19.4542 93.5789 19.4008 93.787 19.294C93.995 19.1872 94.1552 19.0382 94.2677 18.847C94.3858 18.6502 94.4448 18.4141 94.4448 18.1386H96.9243C96.9243 18.802 96.7528 19.3868 96.4099 19.8928C96.0725 20.3988 95.6171 20.7952 95.0436 21.0819C94.4701 21.3631 93.8235 21.5036 93.1038 21.5036C92.3954 21.5036 91.7769 21.3884 91.2484 21.1579C90.7199 20.9217 90.2785 20.5928 89.9243 20.1711C89.5701 19.7494 89.303 19.2603 89.1231 18.7036C88.9488 18.1414 88.8617 17.5342 88.8617 16.8819V16.6627C88.8617 16.0161 88.9488 15.4117 89.1231 14.8494C89.303 14.2872 89.5701 13.7952 89.9243 13.3735C90.2785 12.9518 90.7171 12.6257 91.24 12.3952C91.7685 12.1591 92.387 12.041 93.0954 12.041C93.8432 12.041 94.5038 12.1844 95.0773 12.4711C95.6564 12.7579 96.109 13.1711 96.4352 13.7109C96.7613 14.245 96.9243 14.8888 96.9243 15.6422H94.4448C94.4448 15.3498 94.3914 15.0884 94.2845 14.8579C94.1833 14.6217 94.0259 14.4362 93.8123 14.3012C93.6042 14.1607 93.3456 14.0904 93.0364 14.0904C92.7159 14.0904 92.4516 14.1607 92.2436 14.3012C92.0412 14.4362 91.8866 14.6245 91.7797 14.8663C91.6729 15.1081 91.5998 15.3836 91.5605 15.6928C91.5211 15.9964 91.5014 16.3197 91.5014 16.6627V16.8819C91.5014 17.2305 91.5211 17.5623 91.5605 17.8771C91.5998 18.1864 91.6729 18.4591 91.7797 18.6952C91.8922 18.9313 92.0496 19.1169 92.252 19.2518C92.4544 19.3868 92.7215 19.4542 93.0532 19.4542ZM102.87 12.2097V14.0566H97.4556V12.2097H102.87ZM98.6954 9.94942H101.335V18.4759C101.335 18.7289 101.366 18.9229 101.428 19.0579C101.49 19.1928 101.591 19.2884 101.732 19.3446C101.872 19.3952 102.052 19.4205 102.271 19.4205C102.429 19.4205 102.564 19.4149 102.676 19.4036C102.789 19.3924 102.893 19.3783 102.988 19.3615V21.2675C102.763 21.3406 102.524 21.3968 102.271 21.4362C102.018 21.4811 101.743 21.5036 101.445 21.5036C100.877 21.5036 100.385 21.4109 99.9689 21.2253C99.5584 21.0398 99.2436 20.7474 99.0243 20.3482C98.805 19.9434 98.6954 19.4177 98.6954 18.7711V9.94942Z" fill="#182F43"/>
<path d="M52.7412 41H50.9099L50.9219 40.0542H52.7412C53.3677 40.0542 53.8898 39.9237 54.3074 39.6627C54.7251 39.3976 55.0384 39.0281 55.2472 38.5542C55.4601 38.0763 55.5665 37.5181 55.5665 36.8795V36.3434C55.5665 35.8414 55.5062 35.3956 55.3858 35.006C55.2653 34.6124 55.0886 34.2811 54.8556 34.012C54.6227 33.739 54.3376 33.5321 54.0002 33.3916C53.6669 33.251 53.2833 33.1807 52.8496 33.1807H50.8737V32.2289H52.8496C53.4239 32.2289 53.948 32.3253 54.4219 32.5181C54.8958 32.7068 55.3034 32.9819 55.6448 33.3434C55.9902 33.7008 56.2552 34.1345 56.44 34.6446C56.6247 35.1506 56.7171 35.7209 56.7171 36.3554V36.8795C56.7171 37.5141 56.6247 38.0863 56.44 38.5964C56.2552 39.1024 55.9882 39.5341 55.6388 39.8916C55.2934 40.249 54.8757 40.5241 54.3858 40.7169C53.8998 40.9056 53.3516 41 52.7412 41ZM51.5303 32.2289V41H50.3677V32.2289H51.5303ZM59.5062 34.4819V41H58.3858V34.4819H59.5062ZM58.3014 32.753C58.3014 32.5723 58.3556 32.4197 58.4641 32.2952C58.5765 32.1707 58.7412 32.1084 58.958 32.1084C59.1709 32.1084 59.3335 32.1707 59.446 32.2952C59.5625 32.4197 59.6207 32.5723 59.6207 32.753C59.6207 32.9257 59.5625 33.0743 59.446 33.1988C59.3335 33.3193 59.1709 33.3795 58.958 33.3795C58.7412 33.3795 58.5765 33.3193 58.4641 33.1988C58.3556 33.0743 58.3014 32.9257 58.3014 32.753ZM65.5183 34.4819H66.5303V40.8614C66.5303 41.4357 66.4139 41.9257 66.1809 42.3313C65.948 42.7369 65.6227 43.0442 65.205 43.253C64.7914 43.4659 64.3135 43.5723 63.7713 43.5723C63.5464 43.5723 63.2813 43.5361 62.9761 43.4639C62.6749 43.3956 62.3777 43.2771 62.0845 43.1084C61.7954 42.9438 61.5524 42.7209 61.3556 42.4398L61.94 41.7771C62.2131 42.1064 62.4982 42.3353 62.7954 42.4639C63.0966 42.5924 63.3938 42.6566 63.687 42.6566C64.0404 42.6566 64.3456 42.5904 64.6026 42.4578C64.8597 42.3253 65.0584 42.1285 65.199 41.8675C65.3436 41.6104 65.4159 41.2932 65.4159 40.9157V35.9157L65.5183 34.4819ZM61.0303 37.8133V37.6867C61.0303 37.1888 61.0886 36.7369 61.205 36.3313C61.3255 35.9217 61.4962 35.5703 61.7171 35.2771C61.942 34.9839 62.2131 34.759 62.5303 34.6024C62.8476 34.4418 63.205 34.3614 63.6026 34.3614C64.0123 34.3614 64.3697 34.4337 64.6749 34.5783C64.9841 34.7189 65.2452 34.9257 65.458 35.1988C65.6749 35.4679 65.8456 35.7932 65.9701 36.1747C66.0946 36.5562 66.1809 36.988 66.2291 37.4699V38.0241C66.185 38.502 66.0986 38.9317 65.9701 39.3133C65.8456 39.6948 65.6749 40.0201 65.458 40.2892C65.2452 40.5582 64.9841 40.7651 64.6749 40.9096C64.3657 41.0502 64.0042 41.1205 63.5906 41.1205C63.201 41.1205 62.8476 41.0382 62.5303 40.8735C62.2171 40.7088 61.948 40.4779 61.7231 40.1807C61.4982 39.8835 61.3255 39.5341 61.205 39.1325C61.0886 38.7269 61.0303 38.2871 61.0303 37.8133ZM62.1448 37.6867V37.8133C62.1448 38.1386 62.1769 38.4438 62.2412 38.7289C62.3094 39.0141 62.4119 39.2651 62.5484 39.4819C62.689 39.6988 62.8677 39.8695 63.0845 39.994C63.3014 40.1145 63.5605 40.1747 63.8617 40.1747C64.2311 40.1747 64.5364 40.0964 64.7773 39.9398C65.0183 39.7831 65.209 39.5763 65.3496 39.3193C65.4942 39.0622 65.6066 38.7831 65.687 38.4819V37.0301C65.6428 36.8092 65.5745 36.5964 65.4821 36.3916C65.3938 36.1827 65.2773 35.998 65.1327 35.8373C64.9922 35.6727 64.8175 35.5422 64.6086 35.4458C64.3998 35.3494 64.1548 35.3012 63.8737 35.3012C63.5685 35.3012 63.3054 35.3655 63.0845 35.494C62.8677 35.6185 62.689 35.7912 62.5484 36.012C62.4119 36.2289 62.3094 36.4819 62.2412 36.7711C62.1769 37.0562 62.1448 37.3614 62.1448 37.6867ZM69.4339 34.4819V41H68.3135V34.4819H69.4339ZM68.2291 32.753C68.2291 32.5723 68.2833 32.4197 68.3918 32.2952C68.5042 32.1707 68.6689 32.1084 68.8858 32.1084C69.0986 32.1084 69.2613 32.1707 69.3737 32.2952C69.4902 32.4197 69.5484 32.5723 69.5484 32.753C69.5484 32.9257 69.4902 33.0743 69.3737 33.1988C69.2613 33.3193 69.0986 33.3795 68.8858 33.3795C68.6689 33.3795 68.5042 33.3193 68.3918 33.1988C68.2833 33.0743 68.2291 32.9257 68.2291 32.753ZM73.952 34.4819V35.3373H70.4279V34.4819H73.952ZM71.6207 32.8976H72.7352V39.3855C72.7352 39.6064 72.7693 39.7731 72.8376 39.8855C72.9058 39.998 72.9942 40.0723 73.1026 40.1084C73.2111 40.1446 73.3275 40.1627 73.452 40.1627C73.5444 40.1627 73.6408 40.1546 73.7412 40.1386C73.8456 40.1185 73.9239 40.1024 73.9761 40.0904L73.9821 41C73.8938 41.0281 73.7773 41.0542 73.6327 41.0783C73.4922 41.1064 73.3215 41.1205 73.1207 41.1205C72.8476 41.1205 72.5966 41.0663 72.3677 40.9578C72.1388 40.8494 71.956 40.6687 71.8195 40.4157C71.687 40.1586 71.6207 39.8133 71.6207 39.3795V32.8976ZM79.1026 39.8855V36.5301C79.1026 36.2731 79.0504 36.0502 78.946 35.8614C78.8456 35.6687 78.693 35.5201 78.4882 35.4157C78.2833 35.3112 78.0303 35.259 77.7291 35.259C77.448 35.259 77.201 35.3072 76.9882 35.4036C76.7793 35.5 76.6147 35.6265 76.4942 35.7831C76.3777 35.9398 76.3195 36.1084 76.3195 36.2892H75.205C75.205 36.0562 75.2653 35.8253 75.3858 35.5964C75.5062 35.3675 75.6789 35.1606 75.9038 34.9759C76.1327 34.7871 76.4058 34.6386 76.7231 34.5301C77.0444 34.4177 77.4018 34.3614 77.7954 34.3614C78.2693 34.3614 78.687 34.4418 79.0484 34.6024C79.4139 34.7631 79.699 35.006 79.9038 35.3313C80.1127 35.6526 80.2171 36.0562 80.2171 36.5422V39.5783C80.2171 39.7952 80.2352 40.0261 80.2713 40.2711C80.3115 40.5161 80.3697 40.7269 80.446 40.9036V41H79.2833C79.2271 40.8715 79.1829 40.7008 79.1508 40.488C79.1187 40.2711 79.1026 40.0703 79.1026 39.8855ZM79.2954 37.0482L79.3074 37.8313H78.1809C77.8637 37.8313 77.5805 37.8574 77.3315 37.9096C77.0825 37.9578 76.8737 38.0321 76.705 38.1325C76.5364 38.2329 76.4078 38.3594 76.3195 38.512C76.2311 38.6606 76.187 38.8353 76.187 39.0361C76.187 39.241 76.2331 39.4277 76.3255 39.5964C76.4179 39.7651 76.5564 39.8996 76.7412 40C76.9299 40.0964 77.1609 40.1446 77.4339 40.1446C77.7753 40.1446 78.0765 40.0723 78.3376 39.9277C78.5986 39.7831 78.8054 39.6064 78.958 39.3976C79.1147 39.1888 79.199 38.9859 79.2111 38.7892L79.687 39.3253C79.6588 39.494 79.5825 39.6807 79.458 39.8855C79.3335 40.0904 79.1669 40.2871 78.958 40.4759C78.7532 40.6606 78.5082 40.8153 78.2231 40.9398C77.942 41.0602 77.6247 41.1205 77.2713 41.1205C76.8295 41.1205 76.442 41.0341 76.1086 40.8614C75.7793 40.6888 75.5223 40.4578 75.3376 40.1687C75.1568 39.8755 75.0665 39.5482 75.0665 39.1867C75.0665 38.8373 75.1348 38.5301 75.2713 38.2651C75.4078 37.996 75.6046 37.7731 75.8617 37.5964C76.1187 37.4157 76.4279 37.2791 76.7894 37.1867C77.1508 37.0944 77.5544 37.0482 78.0002 37.0482H79.2954ZM83.1809 31.747V41H82.0605V31.747H83.1809ZM91.446 33.006L88.5424 41H87.3556L90.699 32.2289H91.4641L91.446 33.006ZM93.8797 41L90.9701 33.006L90.952 32.2289H91.7171L95.0725 41H93.8797ZM93.7291 37.753V38.7048H88.8014V37.753H93.7291ZM100.301 34.4819H101.313V40.8614C101.313 41.4357 101.197 41.9257 100.964 42.3313C100.731 42.7369 100.406 43.0442 99.9882 43.253C99.5745 43.4659 99.0966 43.5723 98.5544 43.5723C98.3295 43.5723 98.0645 43.5361 97.7593 43.4639C97.458 43.3956 97.1609 43.2771 96.8677 43.1084C96.5785 42.9438 96.3356 42.7209 96.1388 42.4398L96.7231 41.7771C96.9962 42.1064 97.2813 42.3353 97.5785 42.4639C97.8797 42.5924 98.1769 42.6566 98.4701 42.6566C98.8235 42.6566 99.1287 42.5904 99.3858 42.4578C99.6428 42.3253 99.8416 42.1285 99.9821 41.8675C100.127 41.6104 100.199 41.2932 100.199 40.9157V35.9157L100.301 34.4819ZM95.8135 37.8133V37.6867C95.8135 37.1888 95.8717 36.7369 95.9882 36.3313C96.1086 35.9217 96.2793 35.5703 96.5002 35.2771C96.7251 34.9839 96.9962 34.759 97.3135 34.6024C97.6307 34.4418 97.9882 34.3614 98.3858 34.3614C98.7954 34.3614 99.1528 34.4337 99.458 34.5783C99.7673 34.7189 100.028 34.9257 100.241 35.1988C100.458 35.4679 100.629 35.7932 100.753 36.1747C100.878 36.5562 100.964 36.988 101.012 37.4699V38.0241C100.968 38.502 100.882 38.9317 100.753 39.3133C100.629 39.6948 100.458 40.0201 100.241 40.2892C100.028 40.5582 99.7673 40.7651 99.458 40.9096C99.1488 41.0502 98.7874 41.1205 98.3737 41.1205C97.9841 41.1205 97.6307 41.0382 97.3135 40.8735C97.0002 40.7088 96.7311 40.4779 96.5062 40.1807C96.2813 39.8835 96.1086 39.5341 95.9882 39.1325C95.8717 38.7269 95.8135 38.2871 95.8135 37.8133ZM96.9279 37.6867V37.8133C96.9279 38.1386 96.9601 38.4438 97.0243 38.7289C97.0926 39.0141 97.195 39.2651 97.3315 39.4819C97.4721 39.6988 97.6508 39.8695 97.8677 39.994C98.0846 40.1145 98.3436 40.1747 98.6448 40.1747C99.0143 40.1747 99.3195 40.0964 99.5605 39.9398C99.8014 39.7831 99.9922 39.5763 100.133 39.3193C100.277 39.0622 100.39 38.7831 100.47 38.4819V37.0301C100.426 36.8092 100.358 36.5964 100.265 36.3916C100.177 36.1827 100.06 35.998 99.9159 35.8373C99.7753 35.6727 99.6006 35.5422 99.3918 35.4458C99.1829 35.3494 98.938 35.3012 98.6568 35.3012C98.3516 35.3012 98.0886 35.3655 97.8677 35.494C97.6508 35.6185 97.4721 35.7912 97.3315 36.012C97.195 36.2289 97.0926 36.4819 97.0243 36.7711C96.9601 37.0562 96.9279 37.3614 96.9279 37.6867ZM105.711 41.1205C105.257 41.1205 104.846 41.0442 104.476 40.8916C104.111 40.7349 103.795 40.5161 103.53 40.2349C103.269 39.9538 103.068 39.6205 102.928 39.2349C102.787 38.8494 102.717 38.4277 102.717 37.9699V37.7169C102.717 37.1867 102.795 36.7149 102.952 36.3012C103.109 35.8835 103.321 35.5301 103.591 35.241C103.86 34.9518 104.165 34.7329 104.506 34.5843C104.848 34.4357 105.201 34.3614 105.566 34.3614C106.032 34.3614 106.434 34.4418 106.771 34.6024C107.113 34.7631 107.392 34.988 107.609 35.2771C107.826 35.5622 107.986 35.8996 108.091 36.2892C108.195 36.6747 108.247 37.0964 108.247 37.5542V38.0542H103.38V37.1446H107.133V37.0602C107.117 36.7711 107.056 36.49 106.952 36.2169C106.852 35.9438 106.691 35.7189 106.47 35.5422C106.249 35.3655 105.948 35.2771 105.566 35.2771C105.313 35.2771 105.081 35.3313 104.868 35.4398C104.655 35.5442 104.472 35.7008 104.319 35.9096C104.167 36.1185 104.048 36.3735 103.964 36.6747C103.88 36.9759 103.838 37.3233 103.838 37.7169V37.9699C103.838 38.2791 103.88 38.5703 103.964 38.8434C104.052 39.1124 104.179 39.3494 104.344 39.5542C104.512 39.759 104.715 39.9197 104.952 40.0361C105.193 40.1526 105.466 40.2108 105.771 40.2108C106.165 40.2108 106.498 40.1305 106.771 39.9699C107.044 39.8092 107.283 39.5944 107.488 39.3253L108.163 39.8614C108.022 40.0743 107.844 40.2771 107.627 40.4699C107.41 40.6627 107.143 40.8193 106.826 40.9398C106.512 41.0602 106.141 41.1205 105.711 41.1205ZM110.663 35.8735V41H109.548V34.4819H110.603L110.663 35.8735ZM110.398 37.494L109.934 37.4759C109.938 37.0301 110.004 36.6185 110.133 36.241C110.261 35.8594 110.442 35.5281 110.675 35.247C110.908 34.9659 111.185 34.749 111.506 34.5964C111.832 34.4398 112.191 34.3614 112.585 34.3614C112.906 34.3614 113.195 34.4056 113.452 34.494C113.709 34.5783 113.928 34.7149 114.109 34.9036C114.293 35.0924 114.434 35.3373 114.53 35.6386C114.627 35.9357 114.675 36.2992 114.675 36.7289V41H113.554V36.7169C113.554 36.3755 113.504 36.1024 113.404 35.8976C113.303 35.6888 113.157 35.5382 112.964 35.4458C112.771 35.3494 112.534 35.3012 112.253 35.3012C111.976 35.3012 111.723 35.3594 111.494 35.4759C111.269 35.5924 111.075 35.753 110.91 35.9578C110.749 36.1627 110.623 36.3976 110.53 36.6627C110.442 36.9237 110.398 37.2008 110.398 37.494ZM118.976 40.2048C119.241 40.2048 119.486 40.1506 119.711 40.0422C119.936 39.9337 120.121 39.7851 120.265 39.5964C120.41 39.4036 120.492 39.1847 120.512 38.9398H121.573C121.552 39.3253 121.422 39.6847 121.181 40.0181C120.944 40.3474 120.633 40.6145 120.247 40.8193C119.862 41.0201 119.438 41.1205 118.976 41.1205C118.486 41.1205 118.058 41.0341 117.693 40.8614C117.332 40.6888 117.03 40.4518 116.789 40.1506C116.552 39.8494 116.374 39.504 116.253 39.1145C116.137 38.7209 116.079 38.3052 116.079 37.8675V37.6145C116.079 37.1767 116.137 36.7631 116.253 36.3735C116.374 35.9799 116.552 35.6325 116.789 35.3313C117.03 35.0301 117.332 34.7932 117.693 34.6205C118.058 34.4478 118.486 34.3614 118.976 34.3614C119.486 34.3614 119.932 34.4659 120.313 34.6747C120.695 34.8795 120.994 35.1606 121.211 35.5181C121.432 35.8715 121.552 36.2731 121.573 36.7229H120.512C120.492 36.4538 120.416 36.2108 120.283 35.994C120.155 35.7771 119.978 35.6044 119.753 35.4759C119.532 35.3434 119.273 35.2771 118.976 35.2771C118.635 35.2771 118.348 35.3454 118.115 35.4819C117.886 35.6145 117.703 35.7952 117.566 36.0241C117.434 36.249 117.338 36.5 117.277 36.7771C117.221 37.0502 117.193 37.3293 117.193 37.6145V37.8675C117.193 38.1526 117.221 38.4337 117.277 38.7108C117.334 38.988 117.428 39.239 117.56 39.4639C117.697 39.6888 117.88 39.8695 118.109 40.006C118.342 40.1386 118.631 40.2048 118.976 40.2048ZM124.657 40.3253L126.47 34.4819H127.663L125.048 42.006C124.988 42.1667 124.908 42.3394 124.807 42.5241C124.711 42.7129 124.587 42.8916 124.434 43.0602C124.281 43.2289 124.097 43.3655 123.88 43.4699C123.667 43.5783 123.412 43.6325 123.115 43.6325C123.026 43.6325 122.914 43.6205 122.777 43.5964C122.641 43.5723 122.544 43.5522 122.488 43.5361L122.482 42.6325C122.514 42.6365 122.564 42.6406 122.633 42.6446C122.705 42.6526 122.755 42.6566 122.783 42.6566C123.036 42.6566 123.251 42.6225 123.428 42.5542C123.605 42.49 123.753 42.3795 123.874 42.2229C123.998 42.0703 124.105 41.8594 124.193 41.5904L124.657 40.3253ZM123.326 34.4819L125.018 39.5422L125.307 40.7169L124.506 41.1265L122.109 34.4819H123.326Z" fill="#545454"/>
</svg>
