<svg width="90" height="90" viewBox="0 0 90 90" fill="none" xmlns="http://www.w3.org/2000/svg">
<circle cx="45" cy="45" r="45" fill="currentColor" fill-opacity="0.2"/>
<g clip-path="url(#clip0_77_48614)">
<path d="M59.5893 55.6454H59.3714V37.0249C59.3714 35.9557 58.5091 35.0856 57.4495 35.0856H50.8967C49.9932 32.8231 47.4487 27.9288 45.228 28.8615C45.0036 28.9565 44.8127 29.1079 44.6444 29.3265C42.8166 31.7067 40.9977 33.5905 39.092 35.0856H31.5497C30.4901 35.0856 29.6279 35.9557 29.6279 37.0249V55.6454H29.4106C28.6277 55.6454 27.9905 56.2859 27.9905 57.0733C27.9905 59.4412 29.8459 61.1597 32.4016 61.1597H56.5982C60.7338 61.1597 62.4613 55.6454 59.5893 55.6454ZM45.7762 30.0811C46.443 30.0811 48.1797 31.9536 49.5753 35.3392C50.8177 38.3788 51.1901 41.5161 50.5974 41.7683C50.5914 41.7707 44.9765 40.9559 40.054 42.042L38.1316 37.405C42.8609 34.3506 45.5479 30.1206 45.7762 30.0811ZM36.9437 38.1268C36.9591 38.1184 36.9739 38.11 36.9894 38.1015L38.7563 42.3637C37.544 42.6997 35.8992 43.3739 35.3037 43.6515V43.6508C35.2579 43.6664 35.2147 43.6819 35.1799 43.6972C34.9767 43.7818 34.7504 43.6797 34.6684 43.4845L33.3219 40.2311C33.0395 39.5495 34.1496 39.723 36.9437 38.1268ZM36.5243 44.5741C36.7145 44.4939 36.8981 44.4215 37.0833 44.3474C37.6782 44.1114 37.9407 44.0189 38.2083 43.9301L39.7818 47.0287C40.0392 47.6536 40.8092 47.9633 41.4193 47.709C41.4966 47.6779 41.6121 47.6938 41.6385 47.7016C41.7178 47.7369 41.7746 47.796 41.8081 47.8754C41.8546 47.9911 41.8255 48.058 41.8062 48.1027C41.7784 48.1731 41.721 48.2308 41.6527 48.2597L39.0273 49.3483L36.5045 44.5823C36.5113 44.5795 36.5175 44.5769 36.5243 44.5741ZM30.9486 37.0249C30.9486 36.688 31.2182 36.4139 31.5497 36.4139H37.207C33.679 38.6275 32.6228 38.1654 32.1024 39.4087C31.9244 39.8355 31.9238 40.308 32.1024 40.7406L33.4502 43.9965C33.7185 44.6406 34.3382 45.0566 35.0283 45.0566C35.1012 45.0566 35.1745 45.0437 35.2477 45.0339L37.8704 49.9881C38.0787 50.4178 38.5204 50.6958 38.9957 50.6958C39.1672 50.6958 39.3343 50.6607 39.4813 50.5965L42.1583 49.4865C42.5556 49.3198 42.8741 48.9948 43.0231 48.6177C43.1947 48.2279 43.1979 47.7862 43.0283 47.3672C42.8619 46.9699 42.5569 46.6567 42.1344 46.4708C41.7462 46.3259 41.318 46.3243 40.9743 46.4615L39.4968 43.5473C42.9941 42.6002 46.7849 42.6406 50.3633 43.0995C52.928 43.3262 52.2081 38.9166 51.3855 36.4139H57.4495C57.781 36.4139 58.0506 36.688 58.0506 37.0249V55.6279H30.9486V37.0249ZM56.5982 59.8314H32.4016C30.5823 59.8314 29.3112 58.6973 29.3112 57.0733C29.3112 57.0146 29.3519 56.9737 29.4106 56.9737C61.5833 57.0213 59.6886 56.878 59.6886 57.0733C59.6886 58.4076 58.275 59.8314 56.5982 59.8314Z" fill="currentColor"/>
<path d="M52.916 29.1683C53.1707 28.9056 53.1655 28.4854 52.9044 28.2291C52.6438 27.9733 52.226 27.9778 51.9705 28.2402C51.0532 29.3826 49.4727 30.1947 50.2531 30.9603C51.0317 31.7256 51.7895 30.1284 52.916 29.1683Z" fill="currentColor"/>
<path d="M52.8553 34.5748L56.3107 33.0128C56.6434 32.8623 56.7917 32.4692 56.6422 32.1345C56.4919 31.7999 56.101 31.6504 55.7689 31.8012L52.3136 33.3633C51.5162 33.7239 52.0585 34.9343 52.8553 34.5748Z" fill="currentColor"/>
<path d="M56.3784 37.2902L53.7886 37.2604C53.786 37.2604 53.7834 37.2604 53.7808 37.2604C53.4197 37.2604 53.1243 37.5529 53.1204 37.917C53.1166 38.2838 53.4087 38.5844 53.773 38.5887L56.363 38.6185C56.3656 38.6185 56.3681 38.6185 56.3707 38.6185C56.7319 38.6185 57.0273 38.326 57.0311 37.9618C57.035 37.595 56.7428 37.2944 56.3784 37.2902Z" fill="currentColor"/>
</g>
<defs>
<clipPath id="clip0_77_48614">
<rect width="35" height="34" fill="currentColor" transform="translate(27 28)"/>
</clipPath>
</defs>
</svg>
