<svg width="55" height="55" viewBox="0 0 55 55" fill="none" xmlns="http://www.w3.org/2000/svg">
<rect width="55" height="55" rx="27.5" fill="currentColor" fill-opacity="0.05"/>
<path d="M26.9159 30.096C26.9159 30.3326 26.8219 30.5597 26.6546 30.727C26.4873 30.8943 26.2604 30.9884 26.0236 30.9884H15.8924C15.5735 30.9884 15.2789 30.8182 15.1195 30.5422C14.9602 30.2661 14.9602 29.9259 15.1195 29.6498C15.2789 29.3737 15.5735 29.2036 15.8924 29.2036H26.0236C26.2604 29.2036 26.4873 29.2976 26.6546 29.4649C26.8219 29.6323 26.9159 29.8593 26.9159 30.096ZM26.0236 32.7731H18.5695C18.2506 32.7731 17.956 32.9432 17.7966 33.2193C17.6373 33.4954 17.6373 33.8356 17.7966 34.1116C17.956 34.3877 18.2506 34.5578 18.5695 34.5578H26.0236C26.3425 34.5578 26.6371 34.3877 26.7964 34.1116C26.956 33.8356 26.956 33.4953 26.7964 33.2193C26.6371 32.9432 26.3425 32.7731 26.0236 32.7731ZM26.0236 36.3426H21.2468C20.9279 36.3426 20.6333 36.5127 20.4739 36.7888C20.3146 37.0648 20.3146 37.4051 20.4739 37.6811C20.6333 37.9572 20.9279 38.1273 21.2468 38.1273H26.0236C26.3425 38.1273 26.6371 37.9572 26.7964 37.6811C26.956 37.405 26.956 37.0648 26.7964 36.7888C26.6371 36.5127 26.3425 36.3426 26.0236 36.3426ZM30.7531 29.8584L34.3423 26.2737C34.5613 26.0471 34.6443 25.7218 34.5611 25.4178C34.4778 25.1139 34.2404 24.8764 33.9364 24.7932C33.6324 24.7099 33.3071 24.793 33.0805 25.0119L29.4933 28.5939C29.321 28.7602 29.223 28.9887 29.2208 29.2279C29.2188 29.4674 29.3128 29.6976 29.4821 29.8667C29.6514 30.036 29.8815 30.1303 30.1209 30.1281C30.3603 30.1261 30.5888 30.0279 30.7549 29.8558L30.7531 29.8584ZM31.0147 19.4497V17.7847H31.8588C32.1777 17.7847 32.4723 17.6146 32.6317 17.3386C32.791 17.0625 32.791 16.7223 32.6317 16.4462C32.4723 16.1701 32.1777 16 31.8588 16H28.3876C28.0687 16 27.7741 16.1701 27.6147 16.4462C27.4554 16.7223 27.4554 17.0625 27.6147 17.3386C27.7741 17.6146 28.0687 17.7847 28.3876 17.7847H29.2318V19.448C27.164 19.6308 25.2079 20.4664 23.6465 21.8343L22.4739 20.6616C22.2484 20.436 21.9198 20.3477 21.6116 20.43C21.3035 20.5122 21.0626 20.7529 20.9798 21.0608C20.8971 21.369 20.985 21.6978 21.2102 21.9235L22.4203 23.1326C21.6831 24.0648 21.121 25.1231 20.7615 26.2559C20.6762 26.5569 20.7547 26.8803 20.9684 27.1086C21.1819 27.3369 21.4995 27.4369 21.8054 27.372C22.1112 27.307 22.3608 27.0867 22.4631 26.7913C22.9746 25.1631 23.9931 23.7411 25.3701 22.7328C26.7471 21.7247 28.4103 21.1831 30.117 21.1873H30.1313C33.0023 21.1883 35.6543 22.7206 37.0893 25.2075C38.5238 27.6942 38.5228 30.7576 37.0865 33.2435C35.6503 35.7293 32.9969 37.2601 30.126 37.2591C29.9706 37.2591 29.8145 37.2511 29.6344 37.2422C29.3997 37.2338 29.1715 37.3183 28.9988 37.477C28.8261 37.636 28.7229 37.8565 28.7115 38.0907C28.7028 38.3286 28.7882 38.5602 28.9494 38.7353C29.1105 38.9104 29.3342 39.0148 29.5718 39.0259C29.7565 39.0349 29.9421 39.0439 30.126 39.0439C32.662 39.0588 35.1055 38.0917 36.9442 36.345C38.7831 34.5985 39.8745 32.2079 39.9898 29.6742C40.1052 27.1405 39.2355 24.661 37.5631 22.7545C35.8907 20.8478 33.5452 19.6627 31.0182 19.4472L31.0147 19.4497Z" fill="currentColor"/>
</svg>
