<svg width="80" height="80" viewBox="0 0 80 80" fill="none" xmlns="http://www.w3.org/2000/svg">
<path d="M27.3687 53.3331C31.632 53.3331 35.088 49.8771 35.088 45.6138C35.088 41.3506 31.632 37.8945 27.3687 37.8945C23.1055 37.8945 19.6494 41.3506 19.6494 45.6138C19.6494 49.8771 23.1055 53.3331 27.3687 53.3331Z" fill="currentColor"/>
<path d="M27.3689 54.7368C22.3387 54.7368 18.2461 50.6442 18.2461 45.614C18.2461 40.5838 22.3387 36.4912 27.3689 36.4912C32.3991 36.4912 36.4917 40.5838 36.4917 45.614C36.4917 50.6442 32.3991 54.7368 27.3689 54.7368ZM27.3689 39.2982C23.8868 39.2982 21.0531 42.1319 21.0531 45.614C21.0531 49.0961 23.8868 51.9298 27.3689 51.9298C30.851 51.9298 33.6847 49.0961 33.6847 45.614C33.6847 42.1319 30.851 39.2982 27.3689 39.2982Z" fill="currentColor"/>
<path d="M51.2281 53.3331C55.4913 53.3331 58.9474 49.8771 58.9474 45.6138C58.9474 41.3506 55.4913 37.8945 51.2281 37.8945C46.9648 37.8945 43.5088 41.3506 43.5088 45.6138C43.5088 49.8771 46.9648 53.3331 51.2281 53.3331Z" fill="currentColor"/>
<path d="M51.2283 54.7368C46.1981 54.7368 42.1055 50.6442 42.1055 45.614C42.1055 40.5838 46.1981 36.4912 51.2283 36.4912C56.2585 36.4912 60.3511 40.5838 60.3511 45.614C60.3511 50.6442 56.2585 54.7368 51.2283 54.7368ZM51.2283 39.2982C47.7462 39.2982 44.9125 42.1319 44.9125 45.614C44.9125 49.0961 47.7462 51.9298 51.2283 51.9298C54.7104 51.9298 57.5441 49.0961 57.5441 45.614C57.5441 42.1319 54.7104 39.2982 51.2283 39.2982Z" fill="currentColor"/>
<path d="M19.6496 46.3158C18.8735 46.3158 18.2461 45.6884 18.2461 44.9123C18.2461 34.0772 27.0601 25.2632 37.8952 25.2632C38.6714 25.2632 39.2987 25.8906 39.2987 26.6667C39.2987 27.4428 38.6714 28.0702 37.8952 28.0702C28.6082 28.0702 21.0531 35.6253 21.0531 44.9123C21.0531 45.6884 20.4257 46.3158 19.6496 46.3158Z" fill="currentColor"/>
<path d="M43.509 46.3158C42.7328 46.3158 42.1055 45.6884 42.1055 44.9123C42.1055 34.0772 50.9195 25.2632 61.7546 25.2632C62.5307 25.2632 63.1581 25.8906 63.1581 26.6667C63.1581 27.4428 62.5307 28.0702 61.7546 28.0702C52.4676 28.0702 44.9125 35.6253 44.9125 44.9123C44.9125 45.6884 44.2851 46.3158 43.509 46.3158Z" fill="currentColor"/>
</svg>
